<svg width="375" height="441" viewBox="0 0 375 441" fill="none" xmlns="http://www.w3.org/2000/svg">
<path fill-rule="evenodd" clip-rule="evenodd" d="M98.965 99.1994C98.5208 106.587 98.076 113.974 97.6318 121.361C100.491 120.524 118.677 115.081 117.553 120.599C116.748 124.557 111.634 128.838 109.03 131.594C106.632 134.131 104.163 136.601 101.631 139C106.285 137.188 110.976 135.473 115.702 133.868C119.278 132.654 122.88 131.468 126.544 130.558C127.904 130.22 131.576 128.84 132.861 129.781C136.237 132.252 117.918 150.454 115.409 153.02C118.957 151.341 122.591 149.817 126.286 148.509C128.954 147.564 137.196 143.955 139.557 147.037C142.084 150.335 135.824 157.908 134.088 160.309C131.6 163.75 128.904 167.05 126.075 170.207C137.832 180.946 151.648 190.505 166.351 196.447C177.132 200.803 187.722 201.912 199.098 199.522C210.785 197.065 221.993 192.355 232.647 186.969C238.905 183.806 245.079 180.383 250.962 176.538C248.537 173.538 246.182 170.475 243.895 167.366C240.63 162.926 236.617 158.075 234.755 152.79C232.933 147.617 239.769 148.627 243.047 148.908C247.795 149.315 252.53 150.178 257.184 151.211C253.894 148.884 250.663 146.463 247.498 143.964C243.372 140.707 237.869 137.025 235.169 132.339C232.794 128.219 238.006 129.26 240.416 129.8C246.161 131.087 251.752 133.281 257.232 135.42C261.245 136.987 265.234 138.628 269.184 140.357C266.732 138.189 264.363 135.918 262.085 133.562C259.024 130.397 254.896 126.531 253.523 122.172C250.729 113.295 269.529 119.991 272.739 121.361C272.146 112.165 271.554 102.969 270.961 93.7725C246.067 100.51 221.172 107.247 196.278 113.985C193.588 114.713 190.221 116.299 187.415 116.383C184.873 116.461 181.804 115.297 179.326 114.816L134.277 106.062C122.506 103.774 110.736 101.487 98.965 99.1994Z" fill="#FF5678"/>
<path fill-rule="evenodd" clip-rule="evenodd" d="M366.526 415.504C363.838 417.068 360.69 418.276 357.705 419.086C355.951 419.563 353.054 421.033 351.513 419.685C350.773 419.038 350.604 417.569 350.168 416.717C349.477 415.369 348.495 414.205 347.576 413.013C345.347 410.126 343.027 407.34 340.6 404.623C339.45 403.336 337.349 400.331 335.323 400.528C332.797 400.775 332.858 404.33 333.491 406.147C335.506 411.931 341.607 416.972 345.592 421.33C344.579 422.915 339.014 422.726 337.469 422.355C335.11 421.789 334.871 420.081 333.795 418.126C331.276 413.559 326.167 411.004 321.968 408.319C320.437 407.339 317.183 404.625 315.187 405.308C313.296 405.955 313.378 408.412 313.98 410.017C314.89 412.441 317.478 414.123 319.392 415.655C321.944 417.698 324.278 419.921 326.405 422.421C323.339 422.676 320.285 423.115 317.227 423.371C313.529 423.682 310.447 421.618 307.043 420.448C303.879 419.361 300.728 418.442 297.617 417.189C294.125 415.783 290.467 415.293 286.944 414.059C273.119 409.216 259.572 403.125 246.25 396.986C239.901 394.06 233.684 391.133 227.069 388.843C222.249 387.174 214.673 383.848 213.521 378.008C212.913 374.922 215.129 371.604 215.456 368.521C215.839 364.894 215.537 360.904 214.451 357.424C213.493 354.358 211.907 351.519 210.656 348.576C209.199 345.145 210.504 345.201 213.334 344.811C216.721 344.344 220.674 342.404 223.858 341.142C227.526 339.686 231.162 337.652 234.522 335.561C237.56 333.669 240.204 331.231 242.623 328.584C245.083 325.89 246.677 322.698 249.056 319.939C257.836 330.921 266.181 342.07 275.511 352.578C279.914 357.538 284.702 361.639 290.128 365.409C292.394 366.985 294.642 368.783 297.111 370.028C300.198 371.587 303.649 372.554 306.821 373.976C318.987 379.427 330.597 385.387 341.947 392.421C347.438 395.824 352.046 399.725 356.88 403.994C358.385 405.323 370.713 413.068 366.526 415.504ZM223.816 325.534C221.85 326.441 219.976 327.617 217.878 328.198C218.473 324.519 221.849 318.968 226.178 319.579C227.832 319.812 229.079 321.118 228.352 322.919C227.692 324.555 225.216 324.89 223.816 325.534ZM86.972 225.73C84.7429 226.981 82.6662 227.71 81.3594 225.024C82.3274 224.826 86.7247 224.23 86.972 225.73ZM83.2608 218.135C81.5386 217.604 82.9161 217.046 83.5087 216.404C83.9705 215.906 85.499 214.156 86.034 213.867C88.3965 212.594 90.2227 217.33 91.3523 218.867C88.6778 218.625 85.8646 218.938 83.2608 218.135ZM101.677 234.534C98.4123 235.097 98.7746 230.942 98.8721 228.838C99.5608 229.693 104.222 234.095 101.677 234.534ZM112.496 227.359C108.516 228.042 105.886 221.048 106.599 217.989C107.227 215.294 110.312 213.789 112.767 213.392C115.147 213.006 118.461 213.532 119.168 216.324C119.792 218.791 115.149 226.903 112.496 227.359ZM206.709 332.936C203.849 333.83 201.046 333.942 198.172 334.82C194.91 335.816 191.891 335.727 188.623 336.405C187.293 336.68 183.706 338.65 182.409 338.21C181.125 337.774 179.265 333.719 178.527 332.665C184.31 330.22 189.243 327.064 193.054 321.913C196.085 317.816 199.335 311.68 197.428 306.393C195.278 300.432 187.865 299.138 182.923 301.628C180.585 302.805 178.267 304.269 176.34 306.063C174.136 308.115 173.269 310.354 171.841 312.884C170.397 315.443 169.384 314.02 167.941 311.847C166.708 309.989 166.869 308.114 165.328 306.281C164.542 305.346 163.324 304.444 162.914 303.237C162.654 302.471 163.202 301.113 162.709 300.51C162.015 299.663 161.171 300.659 160.59 299.903C160.168 299.353 160.306 298.101 159.87 297.414C159.492 297.023 159.071 296.69 158.606 296.413C158.042 296.129 157.939 295.774 158.297 295.348C157.848 294.503 158.28 294.218 157.319 293.19C155.822 291.589 154.456 290.053 153.39 288.163C152.903 287.297 152.951 286.014 152.345 285.265C151.515 284.236 150.131 284.391 149.416 283.118C148.78 281.983 149.206 279.999 148.157 278.969C147.603 278.809 147.05 278.651 146.496 278.495C146.079 278.084 145.837 277.585 145.767 276.997C145.185 276.084 145.069 275.012 144.333 274.048C142.925 272.205 141.031 270.501 139.787 268.557C138.479 266.514 139.172 266.17 141.444 265.439C143.492 264.778 145.363 264.166 147.262 263.042C156.041 257.846 164.364 244.063 150.43 239.852C145.258 238.29 141.01 234.087 135.277 235.739C132.791 236.455 130.433 237.98 128.579 239.789C127.298 241.04 126.111 244.384 124.538 245.026C121.71 246.177 122.906 243.299 122.103 241.977C121.72 241.346 120.177 240.619 119.605 240.044C118.934 239.371 118.285 238.521 117.82 237.688C116.955 236.143 116.426 235.281 115.179 234.022C114.708 233.547 112.361 231.092 114.478 231.412C113.621 228.755 114.872 228.355 116.601 226.413C118.632 224.133 120.729 220.965 120.741 217.77C120.764 211.636 113.617 208.888 109.129 212.528C108.216 213.269 102.814 220.422 103.919 215.861C104.515 213.401 110.033 206.979 112.591 208.641C109.724 204.391 103.139 214.709 101.602 216.82C100.293 214.369 100.2 212.452 98.0349 210.555C96.2721 213.431 97.2029 210.288 96.8144 209.648C95.9745 208.269 96.4357 209.847 95.9804 209.357C95.4134 208.746 94.5206 208.265 93.9175 207.457C92.8841 208.883 93.2968 207.348 92.9802 206.816C92.2398 205.57 92.5263 204.848 91.2574 203.765C90.3339 202.978 88.5149 201.755 87.2722 201.643C85.8391 201.514 85.4421 202.072 83.9822 201.659C82.1247 201.134 79.787 200.327 80.6864 203.486C81.3391 205.782 83.9933 207.087 84.5748 209.433C85.1602 211.795 82.8644 214.175 81.7506 216.111C80.3201 218.595 79.1506 218.392 76.5592 218.952C74.9031 219.31 72.693 220.075 74.113 222.119C75.1275 223.579 77.5044 223.271 78.8432 224.136C80.7204 225.348 80.6942 228.337 83.0907 228.857C85.7299 229.43 87.2421 226.441 89.4672 225.72C91.0494 225.206 95.951 225.264 97.1963 226.472C98.8936 228.118 97.4272 231.264 97.8543 233.309C98.4894 236.342 100.507 236.527 103.059 236.625C106.2 236.744 107.304 239.811 108.994 242.245C112.951 247.944 116.39 254.02 120.443 259.643C122.237 262.133 124.862 264.348 126.331 267.051C128.145 270.388 125.627 272.313 123.453 274.708C120.613 277.838 118.493 281.4 116.03 284.821C113.84 287.862 111.12 287.105 107.622 287.105C108.402 285.47 109.34 284.451 111.257 284.65C109.252 282.159 107.648 285.008 106.347 286.586C104.466 288.868 102.012 289.418 99.5948 290.919C98.7393 291.45 94.081 294.891 95.4964 296.066C95.6573 296.199 103.368 291.04 104.247 290.567C104.247 292.471 103.837 294.45 104.099 296.344C104.292 297.733 105.252 299.182 105.047 300.626C104.659 303.351 101.196 305.498 99.7093 307.622C98.5902 309.22 98.8603 310.481 98.2906 312.197C97.7713 313.762 98.044 313.289 96.7496 313.772C94.1137 314.757 89.6778 314.225 87.2912 312.825C85.8097 311.957 84.6736 310.583 83.4701 309.373C82.5636 308.46 80.2835 306.902 80.0317 305.625C79.5993 303.426 83.8907 299.341 84.7403 297.074C87.1388 290.674 83.0253 285.699 76.6246 285.336C78.5973 283.788 81.0428 284.954 83.1221 285.545C79.5673 280.535 73.4962 284.658 70.481 288.062C68.4207 282.766 67.4271 277.178 66.1687 271.654C65.3112 267.893 62.0481 261.179 63.5034 257.307C64.2072 255.435 66.1936 254.391 67.5678 253.092C69.129 251.617 70.4659 249.854 71.6073 248.027C74.2968 243.726 75.8496 238.296 72.1469 234.057C73.2719 233.869 74.3975 233.681 75.5225 233.493C73.6925 231.744 70.8054 232.596 68.4305 232.077C66.9235 231.749 62.5877 231.962 61.5818 231.094C60.3717 230.052 61.1474 225.253 61.1906 223.833C61.29 220.514 61.5628 217.323 61.9232 214.024C62.2646 210.908 62.1959 207.541 62.8291 204.48C63.3432 201.995 64.9855 201.238 66.881 199.774C71.4111 196.273 75.1026 192.015 73.5557 185.982C74.1039 185.893 74.652 185.805 75.2001 185.716C73.4276 184.413 71.1337 184.887 69.1624 184.198C70.9728 179.015 74.977 169.904 81.4785 169.413C81.7021 171.73 81.5491 174.486 83.0862 176.404C84.8358 178.587 87.9073 178.807 90.2776 177.652C92.4282 176.603 94.4473 174.38 95.4389 172.184C96.1093 170.697 95.9883 168.183 97.1656 167.005C98.7445 165.424 109.629 166.378 109.296 169.045C109.1 170.614 106.189 173.25 105.375 174.64C103.887 177.184 102.695 179.935 102.148 182.857C101.318 187.294 101.799 193.151 106.229 195.484C111.267 198.138 117.408 194.764 121.539 191.849C123.808 190.249 126.006 188.482 128.079 186.628C129.183 185.641 130.292 184.624 131.265 183.501C131.984 182.672 132.558 181.336 133.442 180.716C135.531 179.25 137.579 181.737 139.347 182.993C142.227 185.04 145.092 186.983 148.183 188.686C154.456 192.142 160.191 196.72 165.737 201.265C171.316 205.837 177.068 210.541 181.587 216.237C178.849 217.949 179.338 218.394 178.12 221.448C177.256 223.616 176.066 225.461 175.928 227.869C175.691 232.026 178.314 235.568 182.296 236.488C184.523 237.003 186.645 236.591 188.708 235.665C190.311 234.945 191.91 233.173 193.585 232.733C196.699 231.916 199.191 237.899 200.937 240.007C208.689 249.368 216.884 258.358 224.184 268.1C224.992 269.18 227.394 271.287 227.589 272.716C227.87 274.768 224.696 276.723 223.38 277.899C222.689 278.516 215.359 285.528 217.821 286.643C218.522 286.96 220.576 282.658 221.089 282.29C223.011 280.913 221.557 283.613 221.443 284.978C221.156 288.37 223.448 290.219 226.668 289.789C230.105 289.33 233.165 286.571 235.292 283.965C237.957 287.104 242.124 291.85 242.894 296.045C243.387 298.724 241.107 305.282 245.363 305.828C246.012 305.912 248.363 304.138 248.801 305.145C249.167 305.985 246.626 307.422 246.259 307.7C244.693 308.889 243.747 310.163 242.483 311.603C240.999 313.293 238.971 314.717 237.301 316.337C235.541 318.043 232.062 322.678 229.74 320.439C228.574 319.314 228.88 317.842 227.012 317.182C225.31 316.581 223.154 317.343 221.572 318.01C219.792 318.76 213.928 321.5 213.277 323.756C212.38 326.866 217.227 323.126 218.088 322.58C217.106 325.117 216.562 328.79 214.06 330.27C211.98 331.5 208.99 332.223 206.709 332.936ZM173.471 313.747C175.135 308.307 184.949 298.608 191.151 301.641C183.922 303.182 178.186 308.214 173.471 313.747ZM177.141 329.325C174.722 327.954 174.852 323.971 174.008 321.642C173.523 320.305 172.554 319.328 172.839 317.845C173.173 316.106 175.353 314.173 176.514 312.919C180.168 308.971 186.597 303.576 192.478 304.481C199.963 305.633 194.889 315.854 192.34 319.373C190.168 322.373 181.797 331.964 177.141 329.325ZM159.679 322.672C151.585 322.122 143.517 321.386 135.533 319.875C132.702 319.339 130.331 319.418 131.95 316.108C132.485 315.016 135.71 308.168 136.438 308.365C136.869 308.481 136.771 313.188 136.898 313.727C137.469 316.149 139.074 318.407 141.78 318.253C146.208 318.002 149.061 312.18 151.392 309.055C153.26 311.609 154.612 314.446 156.489 316.957C157.386 318.157 160.51 320.949 159.679 322.672ZM112.222 290.355C110.864 293.525 108.133 296.539 106.234 299.411C105.16 297.098 104.404 291.79 106.952 290.081C107.916 289.434 113.081 288.351 112.222 290.355ZM140.297 299.793C140.67 298.573 141.084 297.363 141.546 296.174C142.338 298.709 142.743 298.785 140.297 299.793ZM147.226 302.39C148.208 304.083 149.846 305.749 149.589 307.876C149.394 309.488 147.962 311.14 146.939 312.263C145.246 314.121 141.496 317.687 139.043 315.22C136.994 313.159 137.707 307.492 138.66 305.173C140.021 301.86 144.884 298.355 147.226 302.39ZM142.419 298.919C142.982 298.691 141.798 294.994 142.897 294.626C143.854 296.847 144.757 297.448 142.419 298.919ZM126.951 249.166C126.586 247.802 125.75 247.859 126.051 246.173C126.249 245.067 127.111 243.887 127.766 243.01C129.07 241.264 130.791 239.825 132.652 238.735C136.58 236.435 141.975 235.48 145.492 239.08C142.204 239.608 132.124 242.909 132.06 247.484C135.716 246.767 138.592 243.032 142.259 241.855C145.269 240.888 148.533 240.956 151.528 241.976C159.724 244.769 156.316 251.974 151.69 256.654C148.943 259.433 145.65 261.508 142.05 262.939C140.384 263.601 139.362 263.675 137.724 263.342C137.418 263.279 137.059 262.701 136.692 262.577C135.778 262.268 136.043 263.312 135.29 262.843C134.633 262.435 133.232 259.799 132.785 259.044C132.074 257.843 131.743 256.674 130.87 255.578C129.996 254.481 129.571 253.01 128.763 252.017C128.375 251.539 127.312 251.559 127.026 251.093C126.597 250.392 127.143 249.882 126.951 249.166ZM114.363 302.902C116.226 299.61 119.413 296.815 121.879 293.938C122.031 298.668 118.696 301.906 114.363 302.902ZM116.88 304.423C120.728 303.046 122.848 299.752 123.24 295.758C123.738 290.699 126.861 288.044 128.741 283.499C129.462 281.758 130.303 276.026 133.097 277.667C134.056 278.229 134.625 280.346 135.124 281.302C136.333 283.614 137.707 285.857 138.989 288.127C140.033 289.977 141.598 291.836 141.137 294.062C140.736 296.003 139.443 298.07 138.686 299.901C136.9 304.223 134.552 308.204 132.591 312.432C131.799 314.138 130.862 318.175 128.446 318.155C126.534 318.138 126.748 316.012 125.489 315.283C123.899 314.363 122.092 316.113 120.787 316.839C122.29 314.257 124.918 312.795 127.873 313.281C124.335 309.698 121.945 314.533 118.909 315.609C116.032 316.63 110.928 311.818 108.506 310.455C109.433 308.859 110.27 306.907 111.864 305.857C113.375 304.86 115.23 305.013 116.88 304.423ZM85.6017 337.167C86.0229 335.104 87.2133 333.884 87.9681 332.011C88.8433 334.282 86.7941 335.623 85.6017 337.167ZM146.727 349.827C146.52 356.775 145.962 363.704 145.761 370.653C145.668 373.858 145.11 376.916 144.74 380.083C144.427 382.762 144.586 385.393 142.928 387.682C140.314 391.29 135.232 392.328 131.286 393.664C128.388 394.646 125.457 395.536 122.596 396.627C120.021 397.608 117.946 399.095 115.498 400.261C113.308 401.305 110.944 401.924 108.764 403.035C106.509 404.186 104.727 405.587 102.411 406.611C99.638 407.837 97.3533 410.018 94.8875 411.749C92.7166 413.273 90.4202 414.45 88.5528 416.366C86.8019 418.164 84.5853 418.952 82.6008 420.549C80.5026 422.238 78.3062 423.336 75.9882 424.66C71.2397 427.375 64.8331 432.009 59.1185 429.373C60.753 427.25 64.0979 425.21 64.3524 422.284C64.6833 418.473 61.4222 419.876 59.5339 421.093C56.6736 422.936 55.0914 425.161 52.9141 427.618C50.3684 430.489 47.153 428.557 44.0384 427.749C46.168 425.799 48.2806 423.831 50.4064 421.878C52.2011 420.23 54.9469 418.447 56.0398 416.167C56.8208 414.537 56.7829 412.303 54.8978 411.456C52.7891 410.51 50.4044 412.506 48.8425 413.694C44.6964 416.849 41.9656 420.85 39.2434 425.241C37.7953 427.576 37.1282 427.396 34.4641 426.93C31.6412 426.435 28.8176 425.908 25.9711 425.561C29.7418 421.622 33.9559 417.356 36.9339 412.747C37.8986 411.254 39.1571 407.319 36.2177 406.957C35.0064 406.808 32.5948 409.327 31.6602 410.006C27.5768 412.974 23.6511 416.719 20.9446 421.053C20.0511 422.483 19.7705 424.074 18.0405 424.193C15.7788 424.349 11.5757 422.153 9.39376 421.475C13.5641 416.128 17.705 410.743 22.5771 406.028C27.0536 401.695 31.5189 398.548 36.754 395.225C42.3653 391.663 47.5919 387.562 52.7433 383.354C57.6744 379.326 62.8258 375.526 67.365 371.028C76.4317 362.044 84.5074 351.712 91.1953 340.786C92.7598 338.23 94.2328 335.607 95.5062 332.886C96.7019 330.332 97.2532 327.277 98.8675 324.953C99.4254 324.15 100.211 323.554 100.708 322.716C101.177 321.927 101.018 320.974 101.733 320.276C103.386 318.661 106.397 319.635 107.943 320.766C110.428 322.586 112.439 324.795 115.17 326.318C117.918 327.85 120.89 328.964 123.932 329.717C131.042 331.475 138.091 332.918 145.335 333.986C144.589 336.798 146.42 337.24 147.026 339.77C147.763 342.84 146.819 346.701 146.727 349.827ZM78.2624 302.944C76.6501 300.508 75.2118 297.961 73.627 295.509C72.6623 294.016 71.466 292.412 72.2908 290.586C73.68 287.507 78.5809 286.959 81.2404 288.301C87.2866 291.353 81.6701 300.078 78.2624 302.944ZM62.2587 247.231C61.7021 242.469 63.4923 239.091 67.7274 236.595C70.7459 234.815 73.1764 237.247 72.7643 240.491C72.1371 245.432 66.9451 250.929 62.9828 253.507C62.7237 251.417 62.504 249.322 62.2587 247.231ZM61.6131 233.607C62.8624 232.599 66.208 233.886 67.6554 233.974C65.6651 235.742 63.6741 237.511 61.6831 239.28C61.553 238.067 60.4607 234.538 61.6131 233.607ZM68.3304 187.625C78.4037 186.293 66.8077 197.288 63.8886 199.01C64.3635 196.671 65.5304 187.996 68.3304 187.625ZM95.1471 168.376C93.7945 174.011 83.2791 180.159 83.1692 170.928C83.1287 167.489 85.0281 167.767 87.8007 167.437C89.3822 167.249 95.9203 165.155 95.1471 168.376ZM58.8262 177.103C57.6456 180.254 56.6991 183.487 55.5421 186.642C55.0293 188.038 54.4263 188.998 53.4713 190.105C52.6721 191.031 51.721 191.265 51.7524 192.727C52.7538 192.531 53.5374 191.924 54.3465 191.338C54.1502 194.238 53.1423 197.359 52.6544 200.25C52.0697 203.717 51.583 207.185 51.4025 210.7C51.0107 218.343 51.0075 225.959 51.1723 233.607C51.2567 237.505 51.2946 241.404 51.5013 245.297C51.6046 247.233 51.721 249.178 51.9565 251.103C52.052 251.879 52.6066 253.534 52.2639 254.262C50.9185 257.121 44.9586 249.268 42.3705 250.421C42.7427 248.245 41.8839 248.721 40.4495 247.651C39.7549 247.133 39.3029 246.251 38.5782 245.789C38.3591 245.548 38.1178 245.335 37.8548 245.147C37.5553 244.731 37.2393 244.776 36.9071 245.279C33.9913 243.506 33.2378 239.728 31.6726 237.186C30.8674 235.88 30.0897 235.676 29.9524 233.869C29.8333 232.295 30.0662 230.69 30.0034 229.109C29.9321 227.325 29.8294 225.359 29.3376 223.632C28.7666 221.627 27.981 221.79 26.4512 220.722C26.9228 220.512 27.2334 220.16 27.3839 219.665C26.8953 219.754 25.4105 220.37 25.0417 219.927C24.3163 219.057 26.028 218.942 26.478 218.595C24.5583 217.728 24.9717 217.016 25.6643 215.427C25.8605 214.978 26.0476 214.306 26.2144 213.927C26.5787 213.099 26.788 213.624 26.9084 212.595C27.0228 211.614 26.168 209.686 25.9161 208.641C25.4936 206.888 25.2601 205.374 25.6395 203.548C25.9469 202.069 26.7736 200.73 26.8312 199.21C26.8475 198.783 26.2079 198.641 26.1994 198.229C26.1869 197.626 26.7396 197.361 26.8835 196.805C27.2504 195.38 27.085 193.874 27.7129 192.521C28.278 191.307 29.4193 189.736 30.2271 188.676C30.787 187.942 32.1605 187.114 32.311 186.145C32.4104 185.502 31.4273 185.576 31.4711 185.092C31.5307 184.437 32.0709 184.225 32.2194 183.738C32.6282 182.402 32.7309 181.118 33.7872 180.094C35.1176 178.805 35.6957 179.345 35.7507 177.219C35.7775 176.182 34.9619 176.022 35.3988 174.827C35.6362 174.177 36.3367 173.794 36.7848 173.334C38.1151 171.969 39.0119 170.757 39.959 169.07C40.7968 167.581 42.1331 166.714 42.9912 165.427C44.109 163.75 42.4379 162.918 44.7062 162.445C44.3837 161.404 44.041 160.562 44.8893 159.681C45.4243 159.125 46.7822 159.465 47.2557 158.822C47.7986 158.084 46.9961 156.334 47.8143 155.855C48.4795 155.466 49.4756 156.666 50.5208 156.072C51.3175 155.619 52.5203 153.119 52.2639 152.2C54.3236 153.379 53.8101 152.567 54.7958 151.055C55.0169 150.716 55.6866 150.641 55.877 150.299C56.2576 149.615 56.1707 148.918 56.7188 148.362C57.6325 147.437 59.127 147.675 60.1323 147.014C60.963 146.468 60.9192 145.879 61.5818 145.364C62.1482 144.924 63.0783 144.839 63.629 144.383C64.7075 143.49 64.718 142.546 66.0673 141.777C67.6652 140.866 69.0806 140.091 70.534 138.883C71.4817 138.097 72.381 136.701 73.4897 136.182C75.0228 135.464 76.2171 135.413 77.7169 134.388C78.8007 133.647 79.8256 132.425 80.8898 131.801C81.6923 131.331 82.2555 131.432 83.2673 131.14C85.0883 130.615 85.5317 128.87 87.0171 128.16C88.0368 127.672 89.5215 128.118 90.6413 127.862C94.1262 127.066 97.5685 125.35 101.065 124.399C105.334 123.24 109.632 122.224 113.933 121.199C109.981 126.647 104.946 131.563 99.8407 135.89C98.165 137.311 88.9813 143.787 93.9312 146.552C95.9183 147.662 100.235 144.077 101.84 143.201C105.07 141.436 108.416 140.023 111.8 138.596C117.271 136.288 124.396 132.183 130.477 132.513C126.775 137.131 122.155 140.839 117.922 144.918C114.031 148.668 108.17 152.184 110.004 158.321C104.54 156.907 99.6314 155.236 93.9502 155.606C91.4052 155.772 88.8589 155.461 86.3257 155.823C83.5708 156.22 80.9768 157.157 78.3298 157.98C76.2355 158.63 73.9214 158.681 71.9945 159.763C71.0631 160.287 69.9119 161.034 69.0754 161.683C67.9602 162.548 67.7064 163.121 66.8306 164.262C63.7062 168.331 60.6831 172.146 58.8262 177.103ZM41.7354 254.118C41.5647 253.413 41.4097 252.771 41.2141 251.967C42.9533 253.056 42.9533 253.056 41.7354 254.118ZM28.5919 231.687C28.3774 231.989 27.4767 232.085 27.2151 231.825C26.8894 231.502 27.7456 230.242 27.8829 229.974C28.2224 230.239 29.0033 231.107 28.5919 231.687ZM24.8683 223.524C25.0986 222.664 25.3294 221.804 25.5597 220.944C25.8422 221.741 27.117 222.623 27.1451 223.382C27.1628 223.885 25.1201 223.635 24.8683 223.524ZM25.6074 224.704C27.603 226.04 27.8116 227.616 27.8711 229.922C25.4831 229.118 25.8259 226.767 25.6074 224.704ZM60.3109 133.697C60.1094 134.251 59.2546 135.979 58.628 134.77C58.4278 134.384 59.8943 133.856 60.3109 133.697ZM59.7379 131.813C60.2311 131.361 61.2253 131.924 61.7832 131.558C62.1743 131.302 62.0448 131.042 62.2286 130.891C62.2653 130.86 62.797 129.765 63.0148 129.517C63.3994 129.08 64.2386 128.808 64.7062 128.414C66.0131 127.312 66.7508 125.863 67.573 124.39C68.5541 122.631 68.8667 122.427 70.4489 121.621C71.5399 121.066 72.3856 120.386 73.2732 119.442C74.2962 118.355 74.2209 117.577 75.0608 116.389C75.4754 115.802 76.0726 115.729 76.556 115.257C77.1355 114.691 77.4298 113.899 77.9655 113.328C78.197 113.081 78.94 113.082 79.08 112.87C79.2586 112.602 79.3979 111.532 79.5653 111.335C79.8852 111.774 80.2056 112.214 80.5248 112.653C81.7859 110.397 82.7061 108.534 84.8149 107.033C87.0295 105.456 88.9414 103.15 91.2306 101.739C91.7447 101.422 92.7932 101.288 93.1863 100.821C93.8508 100.03 93.2752 99.3261 93.7599 98.6544C94.3099 97.8927 95.3754 98.5092 96.0746 98.181C96.9596 97.7656 97.2127 96.5519 98.3521 96.6857C94.6056 101.194 94.6527 108.207 94.4538 113.837C94.3675 116.263 95.8699 117.486 93.652 119.267C91.7656 120.781 89.1055 120.332 86.8752 121.328C84.0745 122.58 81.0788 123.246 78.2212 124.337C75.2655 125.465 72.8886 127.44 70.0441 128.747C67.5357 129.899 65.8227 131.536 63.5283 132.958C62.6753 133.487 61.3541 134.255 60.3371 133.623C59.7 133.227 58.9066 132.576 59.7379 131.813ZM102.05 94.0168C102.213 93.3763 105.411 91.6933 106.198 91.144C107.378 90.3185 109.126 88.3026 110.444 89.1035C110.9 87.2434 112.682 85.1736 114.256 84.7795C116.003 84.3414 118.999 82.8182 120.717 81.4887C121.219 81.1006 121.384 80.5327 121.975 80.1685C123.003 79.5341 124.024 79.8803 125.014 79.0155C125.166 78.8836 126.536 76.5822 126.59 76.6041C126.66 76.8511 126.724 77.1008 126.78 77.3518C127.82 76.7652 128.746 76.2985 129.394 75.5502C129.541 75.3805 128.588 74.9391 128.889 74.6029C129.257 74.1915 130.08 74.6515 130.452 74.2607C129.294 80.106 130.156 87.6296 135.986 90.5928C129.053 91.3551 122.28 89.2347 115.261 90.5369C111.901 91.1607 108.486 92.1839 105.429 93.7558C103.556 94.7191 101.162 98.169 99.2979 96.494C100.038 95.4907 101.166 94.8676 102.05 94.0168ZM135.694 77.2006C138.287 73.9751 142.22 72.6989 146.181 73.8539C150.818 75.2067 148.862 78.5022 148.162 82.1611C146.824 80.1659 143.925 78.1866 141.456 78.1267C137.957 78.0421 139.28 81.0074 141.381 82.0699C143.292 83.0352 146.568 83.3042 147.936 85.0598C149.267 86.7681 148.756 89.5616 148.971 91.5761C147.936 91.4197 146.901 91.2632 145.866 91.1068C146.735 86.4053 142.912 86.1776 139.348 84.8521C135.746 83.5133 132.744 80.8716 135.694 77.2006ZM147.308 65.6233V69.9866C145.867 69.1504 144.425 68.3149 142.982 67.4787C144.425 66.8602 145.867 66.2418 147.308 65.6233ZM158.898 100.488C163.713 101.815 168.494 103.219 173.122 105.05C174.803 105.715 176.645 105.95 178.291 106.701C179.86 107.415 180.095 107.34 179.537 108.738C177.975 112.655 174.273 111.979 171.029 111.379C165.953 110.441 160.981 109.141 155.968 107.918C151.067 106.723 146.064 105.939 141.237 104.441C136.285 102.904 131.458 101.449 126.364 100.435C124.877 100.138 113.116 99.0411 113.205 97.7909C120.613 96.8122 128.238 97.7762 135.678 97.8781C143.411 97.9839 151.399 98.42 158.898 100.488ZM152.363 85.3374C152.455 82.6445 152.492 79.9429 152.821 77.2659C155.024 80.0321 157.013 80.8603 159.791 78.2672C162.451 75.7853 163.044 74.491 166.416 76.8245C169.339 78.8484 172.104 78.7552 175.208 76.9836C177.102 75.9031 180.144 71.4879 182.135 72.3966C183.083 72.83 183.778 74.5763 184.736 75.2187C185.938 76.0236 187.785 76.5822 189.186 76.8944C192.493 77.6314 194.464 75.4677 196.54 73.1536C199.551 69.7975 199.462 71.7468 202.254 74.0736C205.367 76.6694 207.97 75.4011 210.789 73.1862C212.507 78.3038 213.149 83.8927 213.635 89.258C213.798 91.0695 214.41 93.6419 212.81 94.9228C211.682 95.8263 209.289 95.8615 207.931 96.3608C203.077 98.1457 198.414 100.678 194.355 103.919C192.773 105.182 191.394 106.729 189.233 106.441C187.174 106.167 185.172 104.413 183.515 103.255C181.718 102 179.899 100.574 177.798 99.874C176.568 99.4639 174.597 99.6124 173.521 98.8607C171.519 97.4633 173.875 93.7977 173.376 91.3371C172.999 89.469 171.942 85.5737 169.412 86.6689C165.647 88.298 167.838 94.6579 169.908 96.6431C165.673 95.8782 160.984 94.7611 156.9 93.3417C153.744 92.2452 152.25 88.6222 152.363 85.3374ZM223.393 98.454C232.087 95.9714 240.222 94.297 249.269 93.845C253.274 93.6446 257.152 93.7711 261.112 93.8077C263.392 93.829 265.129 91.9589 263.308 89.8079C260.787 86.8293 253.098 87.9631 249.691 87.8293C240.559 87.4705 232.185 88.5263 223.537 91.5881C224.451 89.8745 226.648 89.6521 228.154 88.766C230.001 87.6782 231.257 85.8866 232.047 83.8981C234.1 78.7265 232.033 73.8533 229.885 69.1291C234.104 70.2835 238.469 72.8114 242.711 73.4531C243.6 73.5876 244.17 73.5011 244.957 73.8306C245.44 74.0323 245.592 74.7307 246.191 74.8832C246.48 74.9571 247.175 74.2927 247.502 74.3865C248.793 74.758 247.772 74.8565 248.589 75.3945C249.237 75.8212 249.184 76.3704 250.374 76.1687C250.901 76.0802 251.472 75.2507 251.75 75.228C252.104 75.1987 252.022 74.7607 252.564 74.8885C253.549 75.1215 253.462 76.4124 253.79 77.0475C254.141 77.7239 253.643 78.6233 254.706 78.9935C255.501 79.2704 255.7 78.417 256.376 78.4782C256.786 78.5155 257.638 79.1167 258 79.4828C259.167 80.6625 260.766 81.9654 262.336 82.733C262.181 82.5752 263.076 82.1951 262.862 82.1059C262.718 82.0466 263.657 82.277 263.643 82.2736C264.549 82.4833 265.028 83.8987 265.486 84.4147C266.328 85.3607 267.637 86.3593 268.818 86.7768C270.859 87.4991 270.797 86.6356 271.542 89.1029C272.993 86.7821 273.55 90.6687 275.35 91.0968C276.282 91.3185 276.173 90.9124 277.02 91.4084C277.602 91.7486 277.99 92.7904 278.428 93.2931C278.616 92.5681 278.804 91.8424 278.992 91.1181C280.288 93.616 283.086 97.5772 286.155 96.8608C286.155 97.5426 285.879 98.3574 286.398 98.9393C286.76 99.3461 287.347 98.884 287.631 99.1204C287.878 99.3268 288.47 100.148 288.659 100.283C289.033 100.55 289.711 100.744 290.036 101.01C290.321 101.243 290.463 102.36 290.78 102.763C291.376 103.522 292.406 103.672 292.893 104.582C293.004 103.685 293.116 102.787 293.226 101.891C294.193 102.65 294.276 103.24 294.513 104.351C294.851 105.934 294.403 105.563 295.476 106.231C296.53 106.888 297.08 106.814 298.047 107.954C298.995 109.071 299.003 109.759 300.371 108.595C300.626 109.456 300.707 110.57 301.386 111.23C301.899 111.728 304.023 111.75 304.225 112.927C300.236 109.503 302.861 114.704 304.227 112.936C304.516 114.828 305.878 115.439 307.432 116.787C308.882 118.042 309.12 117.951 309.615 120.061C309.604 120.014 310.344 120.481 310.397 120.574C308.984 120.779 311.175 122.385 311.545 122.679C311.815 122.893 312.167 122.381 312.616 122.728C313.129 123.125 313.547 124.027 313.965 124.571C315.097 126.045 315.935 127.312 317.127 128.511C318.413 129.805 319.038 131.441 320.273 132.954C321.643 134.633 322.384 136.565 323.529 138.388C324.618 140.122 326.064 141.515 327.325 143.102C329.335 145.629 330.019 151.195 333.766 151.342C333.546 151.573 333.851 153.298 333.887 153.616C334.065 155.182 333.947 156.69 334.858 158.108C335.067 156.49 335.899 157.114 336.623 157.964C337.826 159.379 336.769 159.022 336.833 160.456C336.91 162.193 337.104 160.849 337.755 162.366C338.264 163.555 338.544 164.326 338.817 165.645C336.701 165.815 335.731 164.056 334.949 162.352C334.622 161.639 334.509 160.467 333.93 159.91C333.314 159.317 332.467 159.27 331.834 158.608C330.619 157.337 330.093 155.354 328.66 154.116C327.042 152.718 326.684 152.058 325.346 150.386C323.866 148.537 321.823 147.239 320.271 145.451C318.716 143.66 318.843 144.638 316.89 143.989C314.813 143.299 311.455 136.658 308.839 139.216C308.942 137.543 306.478 135.969 305.233 135.362C304.694 135.101 304.068 135.338 303.529 134.945C302.945 134.519 302.903 133.697 302.314 133.186C302.314 133.187 301.41 133.409 301.227 133.315C300.854 133.123 300.851 132.442 300.522 132.219C299.61 131.599 298.523 130.949 297.555 130.421C295.203 129.138 293.125 127.558 290.855 126.014C288.911 124.69 286.558 122.3 284.31 121.603C282.348 120.994 281.113 121.304 279.506 120.083C278.631 119.419 278.888 119.196 277.481 118.783C276.142 118.389 275.39 118.591 274.68 117.147C273.439 114.619 274.222 109.685 273.982 106.85C273.727 103.842 273.424 100.759 272.653 97.8335C271.741 94.3763 270.536 92.5688 266.889 93.383C259.665 94.9981 252.527 96.5346 245.27 97.9527C230.808 100.778 216.594 105.389 202.45 109.483C201.373 109.795 195.363 111.194 196.59 108.033C197.156 106.575 200.96 106.032 202.234 105.574C209.224 103.058 216.247 100.494 223.393 98.454ZM220.963 92.0202C219.906 92.4296 218.851 92.839 217.794 93.2491V90.2619C218.851 90.8478 219.906 91.4337 220.963 92.0202ZM216.573 76.2253C217.491 76.9883 219.357 75.1521 220.137 74.78C221.47 74.1449 223.168 73.5996 224.657 73.7301C227.403 73.9718 229.412 76.722 228.909 79.5101C228.057 84.2276 221.449 86.4585 217.805 88.3026C217.688 86.631 217.156 84.6211 218.309 83.1751C219.309 81.9195 221.25 82.0107 222.173 80.6752C224.497 77.3185 218.199 77.0142 216.792 79.6832C216.236 77.9776 215.681 76.2719 215.126 74.5663C216.466 74.3406 215.877 75.6474 216.573 76.2253ZM223.073 66.9914C221.762 67.8535 220.451 68.7157 219.14 69.5778C218.49 66.5933 220.705 66.2005 223.073 66.9914ZM342.555 170.869C340.838 171.703 340.408 169.712 339.174 169.626C340.632 168.714 340.632 168.714 342.555 170.869ZM349.539 214.332C349.752 217.193 349.585 220.087 349.96 222.936C350.245 225.104 351.108 227.121 351.201 229.313C351.402 234.115 349.808 239.004 346.589 242.524C343.543 245.853 339.186 248.719 335.075 250.119C333.223 250.748 331.289 252.146 329.49 252.662C327.5 253.234 325.609 251.99 323.967 254.222C322.872 244.649 323.672 234.647 323.586 225.015C323.5 215.361 323.602 205.705 321.996 196.155C320.566 187.65 317.747 178.084 312.551 171.126C310.44 168.301 307.842 165.987 305.101 163.82C303.679 162.697 302.257 161.495 300.673 160.607C298.236 159.241 296.16 159.43 293.509 159.041C289.714 158.484 286.188 158.013 282.38 159.1C278.835 160.112 274.93 161.264 271.755 163.021C268.592 164.773 264.919 165.495 261.635 167.063C259.402 168.13 254.762 171.696 252.283 171.054C249.884 170.432 246.333 166.291 244.802 164.436C242.844 162.065 241.224 159.318 239.488 156.767C238.878 155.872 237.635 154.488 237.477 153.338C237.201 151.342 237.987 151.995 239.862 152.218C244.683 152.793 249.216 153.702 253.836 155.246C256.135 156.013 260.63 159.12 262.929 157.258C266.439 154.416 261.105 149.531 259.152 147.89C255.823 145.094 251.953 143.018 248.405 140.533C244.635 137.893 239.651 135.082 237.225 131.016C244.309 133.143 251.386 135.579 258.264 138.322C261.41 139.576 264.52 140.901 267.475 142.57C269.135 143.506 272.49 146.04 274.488 144.827C278.834 142.188 268.854 134.526 267.413 132.96C265.176 130.527 262.983 128.117 260.524 125.909C258.865 124.42 256.258 123.373 255.487 121.176C258.241 122.19 260.467 124.176 263.046 125.525C264.396 126.232 265.628 126.639 267.119 126.855C268.708 127.087 268.898 127.345 270.151 127.987C271.126 128.488 272.128 129.158 273.223 129.499C274.003 129.742 275.366 129.784 276.048 130.234C276.397 130.74 276.757 131.237 277.129 131.726C277.545 131.851 277.954 131.994 278.358 132.157C278.963 132.705 279.321 133.462 279.91 134.028C284.181 138.135 289.894 141.075 294.682 144.516C299.212 147.772 304.019 150.717 308.37 154.27C313.377 158.36 318.574 162.755 322.832 167.659C325.239 170.431 327.218 173.573 329.24 176.637C330.703 178.856 332.832 180.697 334.097 182.985C336.856 187.974 339.146 193.366 342.116 198.274C345.142 203.275 349.084 208.244 349.539 214.332ZM308.839 243.276C309.663 239.814 314.318 235.772 317.293 234.245C315.794 238.017 311.8 240.59 308.839 243.276ZM316.514 255.353C313.977 260.707 302.821 261.319 304.334 253.396C305.076 249.514 308.224 247.132 310.926 244.592C312.175 243.418 315.234 239.218 317.168 239.895C317.077 242.914 316.903 245.946 316.909 248.966C316.913 250.982 317.412 253.458 316.514 255.353ZM313.29 193.645C314.319 195.996 315.345 197.954 313.435 200.058C312.573 201.007 309.765 203.084 308.495 202.623C304.416 201.144 312.191 194.702 313.29 193.645ZM288.624 172.723C289.606 172.668 290.56 172.817 291.531 172.756C292.497 172.695 292.599 172.52 293.496 172.645C293.59 172.785 293.685 172.924 293.779 173.064C293.902 174.002 294.386 174.104 295.232 173.371C296.409 173.637 297.174 173.815 298.299 174.461C295.263 176.688 291.567 179.277 287.844 180.025C281.96 181.206 283.585 173.005 288.624 172.723ZM198.418 222.802C197.808 224.05 196.053 220.931 195.619 220.35C196.429 220.347 199.035 221.542 198.418 222.802ZM245.697 189.941C250.269 187.228 255.698 184.845 260.608 182.825C261.472 187.056 257.261 192.518 254.667 195.413C252.571 197.754 250.042 200.182 247.199 201.53C244.125 202.986 240.765 202.347 240.914 198.259C240.969 196.765 241.303 194.362 241.901 192.996C242.672 191.236 244.129 190.87 245.697 189.941ZM183.899 112.983C184.579 112.943 191.971 111.971 191.931 112.906C191.815 115.717 184.64 113.51 183.899 112.983ZM131.63 167.268C135.534 162.369 141.836 157.081 141.929 150.234C142.065 140.158 131.07 145.185 125.543 145.604C128.466 142.684 143.153 130.43 134.466 126.078C131.968 124.828 128.42 126.05 125.914 126.705C121.468 127.868 117.334 129.882 112.967 131.283C116.088 127.905 121.48 124.065 121.303 118.948C121.087 112.719 116.06 114.225 111.713 115.139C110.043 115.49 102.581 118.51 101.179 116.46C100.666 115.709 101.496 114.755 101.672 114.086C101.983 112.903 101.887 112.491 101.897 111.282C101.919 108.844 103.511 105.714 102.212 103.446C101.915 103.962 101.661 104.498 101.45 105.055C101.021 103.735 101.309 102.336 100.881 101.016C111.733 103.839 122.773 105.384 133.693 107.794C139.221 109.013 144.425 111.114 150.029 112.059C155.68 113.012 161.234 114.471 166.896 115.379C172.063 116.208 177.012 117.588 182.128 118.647C187.115 119.679 192.23 117.417 197.098 116.272C208 113.708 218.899 111.081 229.816 108.592C242.414 105.719 255.519 103.263 267.577 98.4726C267.811 104.858 268.313 111.231 269.081 117.572C263.755 115.012 255.852 111.673 250.468 116.255C248.314 118.088 247.65 121.252 248.502 123.944C249.428 126.874 252.268 128.235 254.141 130.44C248.439 128.954 233.731 118.473 231.113 129.067C229.264 136.549 238.284 141.383 242.694 145.594C238.315 144.722 232.45 141.161 229.878 146.884C227.655 151.832 230.332 157.216 233.074 161.297C234.56 163.508 236.231 165.589 237.811 167.732C238.646 168.865 239.462 170.014 240.34 171.114C241.22 172.217 242.881 173.372 243.497 174.559C244.739 176.953 242.233 177.099 240.284 177.964C237.85 179.044 235.76 180.858 233.535 182.303C228.438 185.612 223.984 188.686 217.961 189.744C211.761 190.832 205.79 191.97 199.672 193.488C193.572 195.002 188.592 196.457 182.357 194.5C179.515 193.608 177.199 192.815 174.184 192.983C171.017 193.159 169.165 192.992 166.561 190.997C155.357 182.414 143.194 175.371 131.63 167.268ZM111.429 158.652C115.76 156.442 120.119 154.221 124.593 152.322C128.295 150.75 133.918 148.918 137.971 149.607C136.828 152.593 134.743 155.042 132.507 157.24C130.529 159.184 128.058 162.118 125.665 163.475C123.491 164.706 120.963 162.756 118.819 161.938C116.464 161.041 113.223 160.622 111.429 158.652ZM112.518 169.8C114.676 168.888 119.314 171.948 121.276 172.744C125.133 174.309 129.012 175.942 132.411 178.41C128.261 183.289 123.56 187.749 117.974 190.883C114.299 192.945 108.105 195.31 104.638 191.566C100.283 186.862 105.519 177.276 108.602 173.245C108.704 173.935 108.807 174.624 108.909 175.314C109.893 173.712 110.644 170.592 112.518 169.8ZM191.742 211.556C189.05 212.132 188.135 211.612 186.357 209.512C185.156 208.093 183.975 206.619 182.621 205.342C181.238 204.04 177.824 200.9 182.174 202.708C186.139 204.356 189.536 205.18 193.898 204.534C198.886 203.797 203.536 201.651 208.454 200.566C205.758 202.965 203.082 205.388 200.381 207.781C197.527 210.309 195.368 210.779 191.742 211.556ZM192.357 230.853C186.457 235.369 174.58 234.88 178.577 224.945C179.185 223.435 180.035 222.015 181.018 220.73C181.345 220.3 181.929 219.411 182.396 219.123C183.701 218.318 183.339 218.221 184.593 219.563C185.676 220.72 194.135 230.18 192.357 230.853ZM190.608 213.589C191.148 213.411 193.426 212.068 193.945 212.811C194.47 213.563 190.005 216.165 190.608 213.589ZM233.559 282.459C232.233 285.687 221.616 290.36 223.594 283.853C224.47 280.97 225.296 278.788 228.601 278.569C230.508 278.443 234.728 279.616 233.559 282.459ZM252.604 238.71C254.352 236.122 260.123 232.622 262.588 236.482C263.775 238.341 260.894 239.294 259.151 238.816C258.216 238.559 257.451 237.99 256.433 237.947C255.126 237.893 253.848 238.936 252.604 238.71ZM257.237 241.279C256.049 242.503 248.881 248.637 247.72 247.691C250.061 244.288 252.748 240.487 257.237 241.279ZM245.531 303.354C243.042 303.498 244.285 299.683 244.526 298.158C245.128 299.22 248.296 303.195 245.531 303.354ZM251.855 296.517C251.05 295.06 248.88 292.891 249.371 291.016C249.746 289.583 253.132 287.655 254.55 288.478C256.433 289.571 253.703 296.759 251.855 296.517ZM310.914 281.237C309.849 284.968 308.746 284.005 305.407 284.728C302.058 285.453 299.743 288.346 296.794 289.897C297.818 287.695 298.453 285.011 300.168 283.224C300.565 282.811 302.995 281.997 301.611 281.041C300.4 280.205 298.659 282.917 298.14 283.656C295.586 287.293 293.8 291.734 292.325 295.919C291.599 297.974 291.019 300.068 290.675 302.226C290.369 304.149 290.699 306.162 290.387 308.035C289.885 311.052 285.856 311.068 283.433 311.846C281.239 312.55 279.055 313.313 276.778 313.693C274.804 314.022 272.756 313.423 270.843 313.818C268.771 314.246 267.84 315.496 265.486 315.213C263.566 314.984 261.77 314.086 259.824 313.996C258.003 313.912 256.187 314.553 254.377 314.032C252.55 313.505 252.639 313.301 253.054 311.476C253.314 311.969 253.574 312.461 253.834 312.953C254.562 312.373 255.066 310.602 255.512 309.771C256.204 308.483 256.768 308.038 256.511 306.434C256.133 304.065 254.034 302.38 253.558 300.128C253.06 297.777 254.77 295.855 255.779 293.892C257.16 291.206 257.142 289.214 255.985 286.436C256.857 286.67 257.73 286.904 258.603 287.139C257.407 284.498 253.35 285.569 251.316 286.351C250.294 286.744 248.674 288.289 247.573 288.25C246.062 288.196 245.274 286.175 244.624 285.062C242.745 281.841 240.599 278.661 238.375 275.671C237.763 274.849 236.962 274.32 237.173 273.383C237.353 272.588 239.106 271.46 239.675 270.97C241.808 269.136 244.522 268.12 246.526 266.189C249.553 263.272 253.045 261.181 256.14 258.321C259.365 255.342 262.688 252.606 266.048 249.79C269.452 246.939 272.401 243.579 275.779 240.698C276.655 242.312 278.351 248.09 280.291 248.537C282.553 249.058 282.486 246.336 282.373 244.699C282.213 242.365 280.939 240.097 280.797 237.869C280.644 235.487 282.898 234.422 284.6 233.043C287.227 230.914 293.042 226.065 289.916 222.074C287.224 218.636 278.467 225.228 276.054 227.21C274.002 228.894 272.418 230.417 270.108 231.746C268.484 232.679 265.76 236.27 263.835 235.939C261.545 235.545 260.65 233.002 257.85 233.085C255.112 233.167 252.787 235.172 251.09 237.185C247.252 241.735 245.934 247.824 242.437 252.568C240.713 254.907 238.477 256.837 236.607 259.05C234.553 261.479 234.117 264.277 232.092 266.654C226.297 258.802 219.983 251.368 213.872 243.773C210.82 239.981 207.832 236.144 204.845 232.299C203.726 230.857 202.464 229.505 201.439 227.991C200.035 225.918 200.288 224.253 199.736 221.941C199.492 220.916 198.348 219.689 198.655 218.709C199.067 217.393 201.96 216.36 203.003 215.822C207.263 213.622 211.127 210.873 215.099 208.186C222.455 203.211 229.897 198.546 237.72 194.296C237.585 196.127 236.414 198.024 237.201 199.861C237.567 198.805 238.147 194.097 239.534 193.895C239.269 193.933 239.487 199.932 239.702 200.788C240.342 203.344 242.2 205.091 244.858 205.074C249.92 205.041 254.457 199.441 257.267 195.73C259.169 193.218 260.996 190.297 261.666 187.154C262.268 184.331 261.606 182.367 264.491 180.934C270.411 177.993 276.378 175.597 282.709 174.038C282.425 176.813 281.635 180.229 284.114 182.225C286.852 184.428 290.433 182.465 293.01 181.007C295.563 179.564 299.499 175.599 302.497 176.751C305.447 177.884 307.499 181.645 309.15 184.143C310.605 186.345 312.188 187.932 310.503 190.386C308.615 193.137 307.386 195.821 305.873 198.808C305.292 199.956 304.737 200.705 305.148 201.882C305.281 202.264 306.797 204.537 307.209 204.863C309.835 206.942 313.382 202.988 315.258 201.486C315.919 207.951 316.067 214.387 316.334 220.871C316.529 225.62 318.337 230.296 314.505 233.768C310.674 237.238 307.476 240.801 305.141 245.501C303.894 248.011 302.775 250.588 301.426 253.047C300.525 254.689 298.623 257.098 299.787 259.031C301.015 257.846 301.38 256.044 302.403 254.708C303.016 257.481 303.633 260.557 306.517 261.733C309.835 263.085 313.133 260.745 316.071 259.443C315.018 266.856 312.963 274.06 310.914 281.237ZM307.522 289.758C305.245 294.708 303.188 300.676 298.983 304.321C298.06 305.121 294.137 308.246 292.643 307.722C291.376 307.278 292.074 304.673 292.295 303.557C293.415 297.893 295.353 294.328 299.869 290.715C301.739 289.219 304.138 287.307 306.549 286.938C309.143 286.54 308.396 287.856 307.522 289.758ZM371.754 407.252C365.85 399.087 357.505 392.741 349.619 386.607C346.047 383.828 342.111 381.744 338.502 378.965C334.422 375.822 330.278 372.791 325.708 370.423C317.043 365.933 307.59 362.802 299.413 357.492C295.425 354.903 291.062 352.4 287.313 349.493C285.666 348.215 284.212 346.582 282.724 345.119C281.341 343.76 278.372 341.787 277.822 339.797C280.123 339.415 281.432 337.144 283.486 336.912C284.162 336.836 288.401 337.976 287.821 335.885C289.359 335.846 289.538 335.822 290.827 335.48C291.361 335.338 291.993 335.56 292.533 335.366C293.358 335.069 293.92 334.213 294.754 333.885C295.347 333.652 297.547 333.912 297.881 333.622C298.792 332.83 297.824 332.9 297.281 331.912C299.051 331.866 300.267 332.776 302.042 331.808C302.582 331.514 303.04 330.834 303.564 330.483C304.492 329.858 304.828 330.826 305.464 329.53C306.059 331.318 306.043 330.824 307.478 330.298C308.907 329.774 309.939 329.396 311.567 329.265C315.456 328.952 319.359 329.432 323.229 329.151C324.645 329.048 325.855 328.721 327.262 328.909C328.501 329.075 328.128 329.951 329.158 328.771C329.397 328.496 328.624 327.745 328.994 327.351C329.158 327.177 329.691 327.299 329.893 327.21C331.703 326.407 331.711 327.529 332.032 328.992C333.093 328.739 334.176 328.51 335.098 327.877C334.632 327.454 333.853 326.987 334.303 326.215C335.833 326.805 336.834 326.532 336.069 328.241C337.609 328.759 337.897 328.084 339.28 327.936C340.098 327.849 341.24 328.366 341.922 327.701C342.666 326.976 341.492 326.188 342.859 325.564C343.14 325.709 343.347 325.928 343.483 326.22C344.222 326.447 344.089 326.743 343.085 327.107C345.774 328.524 345.142 326.94 346.271 325.264C346.532 324.877 347.7 323.677 348.232 324.257C349.039 325.136 347.391 325.415 347.744 326.289C348.357 327.805 350.493 325.863 351.148 325.095C351.645 324.515 351.847 323.403 352.382 322.97C353.124 322.368 354.193 323.298 355.123 323.132C359.371 322.374 363.383 316.565 360.183 312.676C359.323 311.631 358.595 311.839 357.57 311.179C356.557 310.527 355.988 309.399 355.175 308.468C353.319 306.342 351.046 304.75 348.451 303.732C342.431 301.37 335.944 299.647 329.623 298.379C326.695 297.792 323.579 296.894 320.581 296.901C318.815 296.904 316.156 298.301 314.505 297.632C311.295 296.331 316.007 289.672 316.785 287.521C319.069 281.202 320.792 274.465 321.923 267.831C322.144 266.533 322.059 264.852 322.518 263.615C323.046 262.193 323.159 262.394 324.289 262.278C326.33 262.068 328.561 263.157 330.686 262.78C333.042 262.364 335.587 262.557 337.965 261.816C339.058 261.476 340.071 261.106 340.79 260.168C341.017 259.874 340.765 259.617 340.908 259.412C340.953 259.346 341.766 258.455 341.792 258.404C341.784 257.942 341.823 257.484 341.91 257.031C342.734 257.727 342.328 259.186 343.717 259.22C343.965 257.664 343.967 257.351 344.971 256.475C344.895 256.542 345.727 255.823 345.621 255.899C345.671 255.622 345.771 255.363 345.92 255.124C346.39 254.893 346.886 254.771 347.408 254.757C348.493 253.622 348.042 253.017 348.042 251.489C348.918 251.951 349.794 252.414 350.669 252.877C350.881 248.35 353.591 245.872 355.392 242.204C356.159 240.64 356.941 239.419 357.124 237.533C357.23 236.445 356.954 235.486 357.397 234.461C357.798 233.531 358.697 233.03 359.072 232.016C359.811 230.022 359.26 227.477 359.301 225.407C359.357 222.535 359.639 219.673 359.731 216.803C359.912 211.169 359.355 205.379 358.526 199.81C358.13 197.146 357.467 194.562 356.946 191.926C356.517 189.76 355.493 187.728 355.126 185.713C354.974 184.875 355.209 184.124 354.961 183.198C354.634 181.98 354.087 180.783 353.68 179.587C352.73 176.794 351.791 174.006 350.723 171.256C348.653 165.927 346.23 160.759 343.927 155.532C341.713 150.507 339.879 145.325 337.01 140.632C334.184 136.01 331.142 131.466 328.028 127.041C324.785 122.434 320.684 118.474 317.538 113.824C311.632 105.093 303.394 97.8981 294.776 91.9569C276.991 79.6965 257.772 67.4554 236.446 63.2519C233.232 62.6188 229.976 62.1794 226.701 62.0975C224.669 62.0462 221.301 63.0455 219.377 62.3458C217.222 61.5622 217.418 59.1003 216.879 57.169C216.185 54.6864 214.62 53.06 212.843 51.3051C210.973 49.4576 209.275 47.2999 206.942 46.0437C204.577 44.7714 201.788 44.2954 199.169 43.9106C196.83 43.5664 193.335 43.888 191.198 42.8514C189.252 41.9067 190.213 40.9234 192.035 41.7323C192.169 40.9147 192.277 40.3868 192.792 39.755C193.05 39.4374 194.272 38.9921 194.302 38.6958C194.336 38.3489 193.311 37.361 193.165 36.9136C192.85 35.9503 193.029 34.6161 193.403 33.712C195.24 35.373 195.773 36.1087 197.824 34.5209C198.69 33.8505 198.956 33.5549 199.959 33.2167C200.231 33.1248 200.842 33.4084 201.079 33.2493C201.986 32.6422 201.152 32.7853 201.583 32.0676C201.474 32.2487 202.236 30.3413 202.2 30.7401C202.292 29.7242 202.587 30.0364 201.984 28.7881C200.803 26.3462 197.795 26.2463 199.328 23.4595C199.931 22.363 200.462 22.4722 200.632 20.8824C200.723 20.0276 200.61 19.0476 200.606 18.1781C200.599 16.3999 200.928 15.155 199.29 14.2495C197.715 13.3787 196.263 14.3341 195.624 12.1744C194.954 9.9082 195.628 7.00288 193.215 5.45102C191.451 4.31726 188.904 5.28659 186.955 4.73202C185.002 4.17678 183.205 2.14426 181.223 3.70477C179.815 4.8139 179.067 7.54081 176.414 6.06618C175.216 5.40109 174.557 3.16818 173.801 1.91591C172.598 -0.0800059 171.633 -0.801011 169.781 1.14297C168.64 2.34198 166.233 5.26062 166.086 6.92033C165.924 8.75247 167.496 9.51808 165.523 10.6019C163.56 11.6804 162.458 10.8895 160.865 13.0785C159.285 15.2502 160.508 16.4498 158.677 18.5276C156.389 21.1247 155.171 22.2458 155.203 25.745C155.225 28.145 153.14 30.2182 154.357 32.495C155.72 35.0468 159.698 36.108 162.11 37.1466C161.305 38.6598 160.2 39.6298 161.14 41.1877C161.991 42.5984 164.398 42.8913 165.89 42.635C166.894 42.4633 166.93 42.6177 167.72 41.9C168.237 41.43 167.527 40.8435 168.593 40.5832C169.727 40.3049 171.538 42.5658 172.275 43.131C170.629 45.3033 166.109 45.7094 163.718 46.8106C162.26 47.4823 160.921 48.4756 159.437 49.0761C158.091 49.6207 156.452 49.4942 155.232 50.3371C153.124 51.7924 152.247 55.3981 150.955 57.5178C149.492 59.9172 148.074 61.0316 145.268 61.5296C141.768 62.1507 138.949 62.4004 135.684 63.9509C131.698 65.8443 127.768 67.8436 123.853 69.8847C117.537 73.1769 111.671 76.5562 105.806 80.538C99.6713 84.7043 93.7036 89.0529 87.7843 93.4063C81.9291 97.7117 77.0131 103.008 71.9271 108.215C67.8157 112.424 64.2078 116.967 60.1121 121.175C55.2772 126.143 51.721 132.414 47.2381 137.684C44.7853 140.568 42.4385 143.403 40.8995 146.8C39.6522 149.553 37.4833 152.255 36.0352 155.144C34.1849 158.837 32.4339 162.472 30.3566 166.043C29.5044 167.508 28.4912 168.766 27.5919 170.164C26.4394 171.956 26.5074 173.686 26.1974 175.751C25.8736 175.247 25.5505 174.743 25.2268 174.24C24.6401 175.544 23.9304 176.826 23.4222 178.161C23.0978 179.012 23.1488 180.221 22.8231 180.966C22.4143 181.901 21.9165 181.777 21.407 182.556C20.8622 183.389 20.6869 184.508 20.1126 185.401C17.6304 189.263 16.6755 194.162 15.4001 198.568C13.689 204.48 13.9591 211.274 14.052 217.368C14.1508 223.806 14.4968 230.244 15.4485 236.614C16.3105 242.383 18.1537 247.916 21.0394 252.974C23.5537 257.381 27.0209 259.95 31.462 262.207C33.5014 263.244 35.3942 262.924 37.535 263.089C39.8798 263.27 41.479 263.918 43.9599 263.348C45.1503 263.075 45.7134 262.193 46.6592 261.9C47.2446 261.718 47.5599 262.015 48.1217 261.946C48.9256 261.846 50.5974 261.446 51.4692 261.542C54.1816 261.843 53.7264 266.014 53.9933 268.143C54.404 271.424 54.7049 274.739 55.2589 277.999C56.4238 284.855 58.9387 291.259 60.4247 297.996C53.5361 298.851 47.6272 300.159 41.1709 302.811C34.6937 305.47 28.1452 306.373 21.3285 307.695C14.9514 308.932 8.81753 311.244 3.71319 315.431C1.32061 317.393 -1.16484 319.689 0.591984 322.92C1.71567 324.987 3.74066 325.512 5.48898 326.713C5.84218 326.258 4.82053 325.295 4.63346 325.028C6.10315 325.335 6.05802 326.032 7.13134 326.64C8.06928 327.17 8.83715 327.152 9.86403 327.526C12.3711 328.442 13.6027 330.728 16.0809 331.37C16.8606 331.571 17.8803 332.054 18.6776 332.191C19.6351 332.356 20.352 331.93 21.3226 332.11C21.8465 332.461 22.413 332.712 23.0219 332.862C23.4209 332.674 23.8153 332.475 24.2038 332.265C25.5983 332.412 26.4597 333.304 27.5925 334.037C27.6684 333.114 27.5592 332.155 28.4186 331.552C28.7541 332.45 28.2119 333.019 29.1276 333.637C30.2879 334.42 31.8119 333.442 32.8506 332.947C33.1442 335.931 39.9387 335.756 42.0925 335.713C45.0751 335.654 48.0543 334.451 51.063 335.123C52.5981 335.465 54.2366 335.822 55.7645 336.267C57.6044 336.802 59.8289 337.28 61.64 337.954C62.3601 338.222 63.2424 339.082 64.009 339.024C64.6192 338.977 64.7828 338.062 65.4931 338.088C66.2969 338.118 66.567 339.028 67.263 339.303C68.3042 339.712 69.2618 338.933 70.2514 339.327C70.6072 339.468 71.0893 340.074 71.5445 340.272C72.2358 340.572 73.6035 340.576 74.3727 340.72C75.463 340.926 76.4395 340.787 77.3735 340.855C78.127 340.911 78.1107 341.426 78.4711 341.459C78.8844 341.497 79.6046 340.051 80.1599 339.839C80.9689 339.53 82.4373 340.266 83.2621 340.395C77.2852 348.635 70.0787 355.918 62.2672 362.294C53.8409 369.174 45.2124 376.043 36.1765 382.077C27.9725 387.555 20.0308 392.294 13.67 400.027C8.3067 406.548 -0.230833 413.525 1.08515 422.977C2.40048 432.42 12.4829 436.264 20.562 438.066C30.7229 440.334 41.1827 439.421 51.3711 440.696C55.7161 441.24 60.5437 440.95 64.9175 440.486C70.0833 439.939 74.5107 436.511 78.9518 434.031C86.9399 429.571 93.7697 423.604 101.638 419.005C111.49 413.247 121.238 407.145 132.038 403.288C137.063 401.494 142.236 399.446 146.289 395.756C146.892 395.207 147.342 394.378 148.023 393.925C149.182 393.156 149.492 393.936 150.165 393.703C150.682 393.524 151.183 392.955 151.63 392.785C152.764 392.353 153.269 392.531 154.538 392.531C153.449 391.893 152.453 390.246 153.583 388.905C155.518 386.607 155.852 390.279 156.579 391.13C157.195 390.324 156.959 389.607 156.801 388.692C157.322 389.041 157.843 389.391 158.365 389.741C158.006 387.97 158.347 386.338 159.27 384.794C160.121 383.371 160.331 383.572 160.566 381.6C163.209 384.054 163.725 378.097 163.963 375.926C164.194 373.82 163.966 372.308 165.328 370.466C166.79 368.489 169.013 367.24 170.868 365.704C173.8 363.276 177.025 360.211 181.079 362.539C184.279 364.377 186.021 368.882 189.023 371.197C190.844 372.601 192.767 372.743 193.928 374.921C194.866 376.681 195.171 378.788 196.057 380.596C198.204 384.977 201.294 389.991 204.82 393.351C208.101 396.48 212.314 396.464 216.154 398.404C219.956 400.325 223.905 402.406 227.93 403.798C232.325 405.319 237.064 405.965 241.343 407.808C243.544 408.756 245.512 410.182 247.732 411.09C250.127 412.068 252.65 412.757 255.076 413.653C264.69 417.205 274.099 421.561 284.199 423.529C288.679 424.402 292.826 426.774 297.339 427.273C299.274 427.488 300.853 427.759 302.747 428.251C305.719 429.024 305.09 429.434 306.184 431.954C307.985 436.102 312.383 433.646 315.773 433.75C321.199 433.916 326.543 433.024 331.961 432.981C341.435 432.908 350.558 431.822 359.724 428.658C368.925 425.482 379.401 417.828 371.754 407.252Z" fill="black"/>
<path fill-rule="evenodd" clip-rule="evenodd" d="M262.234 83.1368C262.363 83.2691 262.668 83.3494 262.234 83.1368Z" fill="black"/>
<path fill-rule="evenodd" clip-rule="evenodd" d="M95.3408 259.82C97.3989 257.699 106.154 258.127 106.816 261.922C107.554 266.156 99.7304 272.553 96.8674 274.346C93.1827 276.654 88.6854 277.087 89.3387 271.292C89.8328 266.915 92.4107 262.84 95.3408 259.82ZM102.571 255.454C102.839 256.627 100.871 256.228 100.329 255.949C100.074 255.416 102.304 254.276 102.571 255.454ZM87.4729 263.22C89.2194 263.379 91.2201 260.53 92.5378 259.559C93.1202 260.475 89.28 265.507 88.8576 266.655C87.8024 269.524 87.2155 273.148 88.6538 276.01C92.8577 284.372 103.616 272.431 106.307 268.26C108.19 265.343 109.493 261.725 106.834 258.867C105.887 257.848 104.323 257.566 103.443 256.598C102.286 255.325 103.197 253.682 100.869 253.96C99.2635 254.151 97.335 255.625 95.7736 256.159C93.8915 256.801 92.1998 257.467 90.5571 258.657C90.1869 258.926 85.3154 263.023 87.4729 263.22Z" fill="black"/>
<path fill-rule="evenodd" clip-rule="evenodd" d="M210.897 266.026C209.8 271.772 204.202 277.665 198.312 277.894C192.447 278.122 190.548 271.872 191.583 266.89C192.466 262.641 196.077 255.26 201.228 256.073C205.277 256.712 211.838 261.102 210.897 266.026ZM207.162 256.424C203.443 253.498 198.305 252.143 193.995 254.466C192.582 255.227 186.94 258.585 188.657 260.858C190.972 259.034 192.97 256.502 195.977 255.895C195.471 258.267 192.583 260.4 191.565 262.71C190.375 265.407 189.724 268.495 189.919 271.46C190.266 276.737 193.741 280.837 199.121 280.111C204.047 279.447 208.352 275.607 210.702 271.291C213.839 265.527 212.072 260.288 207.162 256.424Z" fill="black"/>
<path fill-rule="evenodd" clip-rule="evenodd" d="M172.627 279.086C169.979 283.074 165.941 286.824 161.273 288.056C155.23 289.65 156.928 284.57 158.734 280.925C160.331 277.703 163.07 272.159 167.241 272.188C168.657 272.198 171.294 272.894 172.535 273.664C174.981 275.182 174.021 276.988 172.627 279.086ZM166.986 270.323C167.937 269.246 172.144 264.631 172.708 268.228C173.917 266.804 172.963 265.621 171.417 265.471C169.55 265.289 167.51 267.403 166.164 268.453C163.392 270.613 161.259 272.825 159.422 275.854C157.397 279.193 152.234 286.739 156.752 290.052C161.637 293.633 168.746 287.02 171.804 283.609C173.76 281.427 176.351 278.223 175.607 275.024C174.693 271.094 170.199 270.682 166.986 270.323Z" fill="black"/>
<path fill-rule="evenodd" clip-rule="evenodd" d="M146.146 206.061C143.413 209.232 137.861 213.853 133.286 213.309C129.114 212.812 130.743 208.049 132.22 205.744C134.438 202.28 137.409 199.027 141.703 198.838C143.557 198.756 145.959 198.794 147.395 200.222C149.356 202.172 147.59 204.386 146.146 206.061ZM145.856 197.249C142.654 196.124 141.396 195.695 138.285 197.484C135.786 198.92 133.57 200.95 131.855 203.255C129.289 206.706 126.701 214.467 133.29 215.438C140.518 216.503 157.711 201.418 145.856 197.249Z" fill="black"/>
<path fill-rule="evenodd" clip-rule="evenodd" d="M155.707 217.051C153.628 219.211 151.032 220.973 148.069 221.575C149.323 218.731 152.121 212.516 155.44 211.65C156.968 211.251 158.711 211.774 158.585 213.546C158.494 214.826 156.527 216.198 155.707 217.051ZM158.384 209.532C156.662 208.655 157.205 208.055 155.202 208.744C153.623 209.285 151.632 210.226 150.318 211.311C149.601 211.902 147.368 214 147.641 215.067C148.137 217.007 149.802 214.034 150.24 213.463C150.99 214.085 147.154 219.668 146.925 220.587C146.074 224.009 148.715 224.371 151.304 223.251C154.794 221.742 165.13 212.97 158.384 209.532Z" fill="black"/>
<path fill-rule="evenodd" clip-rule="evenodd" d="M209.557 301.609C209.815 299.341 210.181 296.942 212.228 295.669C214.073 294.52 215.983 294.687 216.256 297.041C216.51 299.229 214.403 303.113 212.699 304.306C210.326 305.967 209.869 303.896 209.557 301.609ZM212.606 306.771C217.478 303.872 220.549 290.574 211.568 294.301C206.465 296.419 208.342 309.309 212.606 306.771Z" fill="black"/>
<path fill-rule="evenodd" clip-rule="evenodd" d="M170.996 251.63C171.765 250.028 172.643 249.497 174.201 248.796C173.163 249.793 172.101 250.714 170.996 251.63ZM172.12 247.683C171.017 248.809 168.488 250.526 168.842 252.46C169.166 254.225 170.491 254.124 171.694 253.574C174.216 252.421 175.619 247.373 178.257 246.9C175.331 245.014 174.648 245.102 172.12 247.683Z" fill="black"/>
<path fill-rule="evenodd" clip-rule="evenodd" d="M172.508 147.437C172.648 152.812 172.772 158.187 172.888 163.563C172.93 165.452 172.486 168.145 173.043 169.955C173.289 170.752 175.515 174.207 176.305 174.431C179.069 175.213 178.081 168.167 178.101 166.432C178.168 160.579 178.083 154.719 178.06 148.865C178.047 145.849 178.885 120.555 175.037 120.679C174.373 120.7 172.74 123.592 172.494 124.172C171.721 125.993 172.006 128.692 172.024 130.633C172.076 136.232 172.362 141.839 172.508 147.437Z" fill="black"/>
<path fill-rule="evenodd" clip-rule="evenodd" d="M195.809 163.107C196.026 164.593 195.912 167.071 197.557 167.842C198.988 168.512 199.537 167.715 200.072 166.469C201.303 163.604 200.859 159.224 200.836 156.262C200.791 150.392 200.141 144.546 199.692 138.697C199.494 136.131 199.904 133.554 199.589 130.869C199.45 129.69 199.312 124.95 197.165 125.171C195.223 125.37 195.398 130.338 195.292 131.618C194.412 142.274 194.259 152.47 195.809 163.107Z" fill="black"/>
<path fill-rule="evenodd" clip-rule="evenodd" d="M287.47 285.472C286.647 289.752 273.218 304.655 269.837 296.32C267.831 291.375 272.179 285.991 275.57 283.129C277.669 281.357 280.29 279.619 283.151 280.155C285.579 280.611 287.992 282.754 287.47 285.472ZM280.535 277.796C279.587 278.024 271.659 283.686 271.586 283.611C270.898 282.909 275.898 275.328 276.413 274.665C280.652 269.202 283.465 273.339 286.116 277.632C285.552 275.068 283.999 271.345 281.403 270.26C278.126 268.891 275.57 272.271 273.994 274.701C271.765 278.135 270.536 281.864 269.298 285.739C268.708 287.588 268.035 289.263 267.035 290.93C266.048 292.574 264.321 294.387 264.576 296.468C265.979 295.674 266.725 294.121 267.608 292.842C268.594 293.248 268.256 296.446 268.456 297.261C268.959 299.306 270.334 300.907 272.459 301.259C276.42 301.914 280.696 298.187 283.345 295.655C286.136 292.988 289.14 289.331 289.116 285.225C289.091 280.936 284.943 276.735 280.535 277.796Z" fill="black"/>
<path fill-rule="evenodd" clip-rule="evenodd" d="M291.275 209.029C289.027 212.528 285.083 216.722 280.911 217.534C277.848 218.131 275.827 215.822 277.057 212.705C278.097 210.071 281.638 208.407 283.959 207.249C285.8 206.329 294.385 204.188 291.275 209.029ZM289.621 203.307C285.017 203.13 281.304 206.516 277.871 209.217C278.646 206.114 280.4 202.737 282.87 200.717C286.23 197.968 289.416 199.675 292.954 201.05C292.081 198.248 288.163 197.241 285.667 197.636C282.511 198.137 280.242 200.877 278.646 203.528C276.743 206.69 276.091 210.417 273.851 213.383C272.825 214.741 266.473 219.821 267.911 221.898C270.284 219.336 272.657 216.774 275.029 214.213C275.645 217.24 276.323 220.688 280.124 220.393C283.159 220.158 286.62 217.534 288.84 215.528C291.706 212.937 297.348 203.604 289.621 203.307Z" fill="black"/>
<path fill-rule="evenodd" clip-rule="evenodd" d="M225.129 233.179C223.179 234.091 218.886 235.331 217.795 232.591C216.28 228.785 221.154 222.109 223.474 219.574C224.902 218.013 225.87 217.206 227.86 218.216C229.448 219.022 231.782 221.313 232.391 223.075C233.7 226.856 228.179 231.752 225.129 233.179ZM229.603 214.901C231.192 215.265 231.386 217.316 229.4 216.528C227.912 215.938 227.566 214.434 229.603 214.901ZM231.597 217.79C231.004 215.95 232.211 213.064 229.29 212.931C227.635 212.856 224.603 214.567 223.159 215.263C221.156 216.227 219.271 217.698 218.225 219.771C217.257 221.691 217.948 222.197 219.425 220.603C219.605 220.728 216.085 229.962 216.054 230.887C215.917 235.116 218.86 237.901 222.993 237.151C226.792 236.462 230.215 233.302 232.306 230.114C233.363 228.499 234.232 226.652 234.311 224.675C234.433 221.642 232.445 220.423 231.597 217.79Z" fill="black"/>
<path fill-rule="evenodd" clip-rule="evenodd" d="M249.818 216.239C248.216 213.1 251.929 207.817 255.254 209.362C262.178 212.58 251.921 220.355 249.818 216.239ZM256.038 212.141C255.295 212.171 250.598 214.017 251.289 215.267C252.238 216.984 255.666 212.831 256.038 212.141Z" fill="black"/>
<path fill-rule="evenodd" clip-rule="evenodd" d="M28.9404 206.338C28.7548 205.001 25.808 206.943 25.8253 207.804C26.3125 206.812 29.3271 209.125 28.9404 206.338Z" fill="black"/>
<path fill-rule="evenodd" clip-rule="evenodd" d="M190.102 105.301C193.854 105.02 189.074 85.7704 186.34 87.4729C183.376 89.3179 186.66 105.558 190.102 105.301Z" fill="black"/>
<path fill-rule="evenodd" clip-rule="evenodd" d="M197.108 96.3121C200.623 96.824 200.065 88.6156 198.174 87.1465C194.685 84.4347 192.841 95.6903 197.108 96.3121Z" fill="black"/>
</svg>
