<svg width="197" height="102" viewBox="0 0 197 102" fill="none" xmlns="http://www.w3.org/2000/svg">
<g filter="url(#filter0_d_2_58)">
<path d="M54.0025 26C0.676668 44.1895 112.448 76.2456 175 90" stroke="#E41313" stroke-width="7" stroke-linecap="round"/>
</g>
<path d="M20.9869 74.32C19.3335 74.32 18.0802 73.9733 17.2269 73.28C16.3735 72.5333 15.9469 71.2533 15.9469 69.44C15.9469 68.0533 16.1602 66.1333 16.5869 63.68C17.0669 61.1733 17.7335 58.4 18.5869 55.36C18.1602 53.2267 17.6269 51.0133 16.9869 48.72C16.4002 46.3733 15.7069 44.16 14.9069 42.08C13.8935 39.2533 12.6669 36.88 11.2269 34.96C9.78688 33.04 8.08021 32.08 6.10688 32.08C5.73354 32.08 5.36021 32.1067 4.98688 32.16C4.66688 32.2133 4.37354 32.2933 4.10688 32.4C3.57354 32.5067 3.01354 32.1333 2.42688 31.28C1.89354 30.4267 1.62688 29.4133 1.62688 28.24C1.62688 26.7467 2.13354 25.44 3.14688 24.32C4.21354 23.1467 5.65354 22.56 7.46688 22.56C9.70688 22.56 11.7602 23.3067 13.6269 24.8C15.5469 26.24 17.2269 28.6933 18.6669 32.16C20.1602 35.6267 21.3602 40.3467 22.2669 46.32C23.2269 43.8667 24.3735 41.28 25.7069 38.56C27.0935 35.7867 28.6402 33.2 30.3469 30.8C32.0535 28.3467 33.8935 26.3733 35.8669 24.88C37.8402 23.3333 39.9202 22.56 42.1069 22.56C43.5469 22.56 44.6402 22.9067 45.3869 23.6C46.1869 24.2933 46.5869 25.2533 46.5869 26.48C46.5869 27.3333 46.4002 28.24 46.0269 29.2C45.7069 30.16 45.2535 30.9867 44.6669 31.68C44.0802 32.3733 43.4669 32.72 42.8269 32.72C42.6135 32.72 42.3735 32.72 42.1069 32.72C41.8935 32.6667 41.6535 32.5867 41.3869 32.48C40.8535 32.2133 40.2402 32.08 39.5469 32.08C37.8402 32.08 35.9735 33.2533 33.9469 35.6C31.9202 37.9467 29.9202 41.5733 27.9469 46.48C25.9202 51.6533 24.9069 56.6667 24.9069 61.52C24.9069 62.64 25.0402 63.76 25.3069 64.88C25.6269 65.9467 26.1869 66.9333 26.9869 67.84C27.5202 68.64 27.7869 69.3867 27.7869 70.08C27.7869 71.2533 27.1469 72.2667 25.8669 73.12C24.5869 73.92 22.9602 74.32 20.9869 74.32ZM50.35 75.04C46.2967 75.04 43.1233 73.8933 40.83 71.6C38.59 69.2533 37.47 66 37.47 61.84C37.47 58.0533 38.2967 54.6133 39.95 51.52C41.6033 48.4267 43.8167 45.9733 46.59 44.16C49.4167 42.2933 52.51 41.36 55.87 41.36C59.07 41.36 61.63 42.16 63.55 43.76C65.47 45.3067 66.43 47.3867 66.43 50C66.43 52.08 65.79 54 64.51 55.76C63.23 57.52 61.5233 58.9333 59.39 60C57.2567 61.0133 54.8833 61.52 52.27 61.52C49.07 61.52 46.4567 60.8 44.43 59.36C44.4833 61.8133 45.31 63.7867 46.91 65.28C48.5633 66.7733 50.67 67.52 53.23 67.52C54.7767 67.52 56.35 67.2533 57.95 66.72C59.6033 66.1333 61.0167 65.36 62.19 64.4C62.9367 63.76 63.63 63.44 64.27 63.44C64.8033 63.44 65.23 63.6267 65.55 64C65.9233 64.32 66.11 64.7467 66.11 65.28C66.11 66.4533 65.0967 68 63.07 69.92C59.4967 73.3333 55.2567 75.04 50.35 75.04ZM51.55 56.24C53.47 56.24 55.07 55.84 56.35 55.04C57.63 54.24 58.27 53.2267 58.27 52C58.27 50.9867 57.8433 50.2133 56.99 49.68C56.1367 49.0933 54.9633 48.8 53.47 48.8C51.4967 48.8 49.7633 49.3333 48.27 50.4C46.83 51.4133 45.79 52.8533 45.15 54.72C45.8967 55.2 46.8567 55.5733 48.03 55.84C49.2033 56.1067 50.3767 56.24 51.55 56.24ZM77.8506 74.8C76.304 74.8 75.1573 74.3733 74.4106 73.52C73.664 72.6667 73.2906 71.1733 73.2906 69.04C73.2906 68.0267 73.3706 66.72 73.5306 65.12C73.6906 63.52 73.8773 61.7867 74.0906 59.92C74.4106 57.6267 74.6773 55.2267 74.8906 52.72C75.1573 50.2133 75.2906 47.8133 75.2906 45.52C75.2906 42.2667 75.1306 38.9067 74.8106 35.44C74.544 31.92 73.744 28.8533 72.4106 26.24C71.9306 25.1733 71.6906 24.4 71.6906 23.92C71.6906 23.2267 71.984 22.56 72.5706 21.92C73.2106 21.28 73.984 20.7467 74.8906 20.32C75.7973 19.84 76.6773 19.6 77.5306 19.6C78.9173 19.6 79.9573 20.24 80.6506 21.52C81.344 22.7467 81.7973 24.4533 82.0106 26.64C82.224 28.7733 82.3306 31.2267 82.3306 34C82.3306 38.2133 82.144 41.8667 81.7706 44.96C81.4506 48.0533 81.1306 50.7733 80.8106 53.12C80.5973 54.6667 80.384 56.1333 80.1706 57.52C80.0106 58.9067 79.9306 60.16 79.9306 61.28C79.9306 63.1467 80.224 64.5067 80.8106 65.36C81.4506 66.16 82.464 66.96 83.8506 67.76C84.224 67.9733 84.4906 68.1867 84.6506 68.4C84.864 68.56 84.9706 68.8267 84.9706 69.2C84.9706 69.6267 84.7573 70.2933 84.3306 71.2C83.904 72.1067 83.1573 72.9333 82.0906 73.68C81.0773 74.4267 79.664 74.8 77.8506 74.8ZM96.0538 74.8C94.5071 74.8 93.3604 74.3733 92.6138 73.52C91.8671 72.6667 91.4938 71.1733 91.4938 69.04C91.4938 68.0267 91.5738 66.72 91.7338 65.12C91.8938 63.52 92.0804 61.7867 92.2938 59.92C92.6138 57.6267 92.8804 55.2267 93.0938 52.72C93.3604 50.2133 93.4938 47.8133 93.4938 45.52C93.4938 42.2667 93.3338 38.9067 93.0138 35.44C92.7471 31.92 91.9471 28.8533 90.6138 26.24C90.1338 25.1733 89.8938 24.4 89.8938 23.92C89.8938 23.2267 90.1871 22.56 90.7738 21.92C91.4138 21.28 92.1871 20.7467 93.0938 20.32C94.0004 19.84 94.8804 19.6 95.7338 19.6C97.1204 19.6 98.1604 20.24 98.8537 21.52C99.5471 22.7467 100 24.4533 100.214 26.64C100.427 28.7733 100.534 31.2267 100.534 34C100.534 38.2133 100.347 41.8667 99.9738 44.96C99.6538 48.0533 99.3338 50.7733 99.0138 53.12C98.8004 54.6667 98.5871 56.1333 98.3738 57.52C98.2138 58.9067 98.1338 60.16 98.1338 61.28C98.1338 63.1467 98.4271 64.5067 99.0138 65.36C99.6538 66.16 100.667 66.96 102.054 67.76C102.427 67.9733 102.694 68.1867 102.854 68.4C103.067 68.56 103.174 68.8267 103.174 69.2C103.174 69.6267 102.96 70.2933 102.534 71.2C102.107 72.1067 101.36 72.9333 100.294 73.68C99.2804 74.4267 97.8671 74.8 96.0538 74.8ZM120.977 75.04C117.297 75.04 114.337 74.0533 112.097 72.08C109.91 70.0533 108.817 67.0933 108.817 63.2C108.817 61.3867 109.057 59.6267 109.537 57.92C110.07 56.2133 110.764 54.6133 111.617 53.12C110.764 53.6533 110.124 53.92 109.697 53.92C109.057 53.92 108.604 53.5733 108.337 52.88C108.124 52.1333 108.017 51.4133 108.017 50.72C108.017 49.4933 108.257 48.5333 108.737 47.84C109.27 47.0933 109.777 46.5333 110.257 46.16C111.377 45.2 113.137 44.16 115.537 43.04C117.937 41.8667 120.817 41.28 124.177 41.28C128.764 41.28 132.31 42.56 134.817 45.12C137.377 47.68 138.657 51.2533 138.657 55.84C138.657 59.4133 137.91 62.6667 136.417 65.6C134.924 68.48 132.844 70.7733 130.177 72.48C127.564 74.1867 124.497 75.04 120.977 75.04ZM123.457 66.88C126.124 66.88 128.364 66.0533 130.177 64.4C132.044 62.6933 132.977 60.4533 132.977 57.68C132.977 54.8 132.044 52.7467 130.177 51.52C128.31 50.2933 126.15 49.68 123.697 49.68C122.577 49.68 121.564 49.7867 120.657 50C119.75 50.2133 118.897 50.48 118.097 50.8C117.35 51.8667 116.684 53.0667 116.097 54.4C115.51 55.7333 115.217 57.2 115.217 58.8C115.217 61.4667 116.017 63.4933 117.617 64.88C119.217 66.2133 121.164 66.88 123.457 66.88ZM155.391 75.12C153.897 75.12 152.617 74.6933 151.551 73.84C150.537 72.9333 149.951 71.28 149.791 68.88C149.684 67.0667 149.444 65.04 149.071 62.8C148.751 60.56 148.351 58.4533 147.871 56.48C147.391 54.5067 146.831 53.0133 146.191 52C145.817 51.4133 145.391 50.9867 144.911 50.72C144.484 50.4 143.817 50.1867 142.911 50.08C141.951 50.0267 141.471 49.3333 141.471 48C141.471 45.8133 142.057 44.2133 143.231 43.2C144.404 42.1333 145.737 41.6 147.231 41.6C148.831 41.6 150.137 42.1333 151.151 43.2C152.164 44.2133 152.937 45.6 153.471 47.36C154.057 49.0667 154.457 50.9867 154.671 53.12C154.937 55.2533 155.071 57.4133 155.071 59.6C155.071 60.4 155.044 61.2 154.991 62C154.991 62.7467 154.991 63.4933 154.991 64.24C154.991 64.7733 155.097 65.2267 155.311 65.6C155.524 65.92 156.057 66.08 156.911 66.08C158.084 66.08 159.471 65.7867 161.071 65.2C162.671 64.56 164.057 63.52 165.231 62.08C166.457 60.64 167.071 58.72 167.071 56.32C167.071 55.0933 166.884 54.08 166.511 53.28C166.137 52.4267 165.631 51.6267 164.991 50.88C164.777 50.6133 164.591 50.3467 164.431 50.08C164.271 49.8133 164.191 49.4933 164.191 49.12C164.191 48.1067 164.591 47.3067 165.391 46.72C166.244 46.08 167.177 45.6267 168.191 45.36C169.257 45.04 170.137 44.88 170.831 44.88C171.524 44.88 172.057 45.0667 172.431 45.44C172.857 45.76 173.177 46.4267 173.391 47.44C173.604 48.1333 173.764 48.9067 173.871 49.76C173.977 50.56 174.031 51.4933 174.031 52.56C174.031 54.2133 173.951 55.5467 173.791 56.56C173.684 57.5733 173.551 58.48 173.391 59.28C173.231 59.9733 173.097 60.6667 172.991 61.36C172.937 62 172.911 62.7733 172.911 63.68C172.911 64.64 173.097 65.28 173.471 65.6C173.844 65.92 174.431 66.08 175.231 66.08C178.271 66.08 180.751 65.04 182.671 62.96C184.591 60.8267 185.551 58.24 185.551 55.2C185.551 54.1333 185.391 53.1467 185.071 52.24C184.751 51.28 184.191 50.3733 183.391 49.52C182.964 48.9867 182.617 48.56 182.351 48.24C182.084 47.8667 181.951 47.4133 181.951 46.88C181.951 45.92 182.377 45.04 183.231 44.24C184.137 43.44 185.177 42.8 186.351 42.32C187.577 41.7867 188.671 41.52 189.631 41.52C191.071 41.52 192.004 42.1867 192.431 43.52C192.857 44.8533 193.071 46.3733 193.071 48.08C193.071 50.96 192.644 53.9733 191.791 57.12C190.991 60.2133 189.817 63.1467 188.271 65.92C186.724 68.64 184.831 70.8533 182.591 72.56C180.351 74.2667 177.817 75.12 174.991 75.12C172.111 75.12 170.137 74.2933 169.071 72.64C168.004 70.9867 167.551 68.9867 167.711 66.64C166.111 69.0933 164.217 71.12 162.031 72.72C159.897 74.32 157.684 75.12 155.391 75.12Z" fill="black"/>
<defs>
<filter id="filter0_d_2_58" x="32.5" y="22.4991" width="150.001" height="79.0017" filterUnits="userSpaceOnUse" color-interpolation-filters="sRGB">
<feFlood flood-opacity="0" result="BackgroundImageFix"/>
<feColorMatrix in="SourceAlpha" type="matrix" values="0 0 0 0 0 0 0 0 0 0 0 0 0 0 0 0 0 0 127 0" result="hardAlpha"/>
<feOffset dy="4"/>
<feGaussianBlur stdDeviation="2"/>
<feComposite in2="hardAlpha" operator="out"/>
<feColorMatrix type="matrix" values="0 0 0 0 0 0 0 0 0 0 0 0 0 0 0 0 0 0 0.25 0"/>
<feBlend mode="normal" in2="BackgroundImageFix" result="effect1_dropShadow_2_58"/>
<feBlend mode="normal" in="SourceGraphic" in2="effect1_dropShadow_2_58" result="shape"/>
</filter>
</defs>
</svg>
