<svg width="560" height="373" viewBox="0 0 560 373" fill="none" xmlns="http://www.w3.org/2000/svg">
<g clip-path="url(#clip0_1_6)">
<path d="M155.411 109.662H60.8533V45.0509H155.411V109.662ZM61.6 108.916H154.665V45.7969H61.6V108.916Z" fill="#EBEBEB"/>
<path d="M68.2453 49.236C68.2453 49.6078 68.135 49.9713 67.9282 50.2804C67.7215 50.5896 67.4276 50.8305 67.0838 50.9728C66.74 51.1151 66.3616 51.1523 65.9967 51.0798C65.6317 51.0073 65.2964 50.8282 65.0332 50.5653C64.7701 50.3024 64.5909 49.9674 64.5183 49.6028C64.4457 49.2381 64.4829 48.8601 64.6254 48.5166C64.7678 48.1731 65.0089 47.8795 65.3184 47.6729C65.6278 47.4663 65.9916 47.3561 66.3637 47.3561C66.8628 47.3561 67.3414 47.5541 67.6942 47.9067C68.0471 48.2593 68.2453 48.7374 68.2453 49.236Z" fill="#A6A6A6"/>
<path d="M75.936 49.236C75.9375 49.6099 75.8278 49.9758 75.6207 50.2874C75.4137 50.5989 75.1188 50.842 74.7733 50.9857C74.4278 51.1295 74.0474 51.1675 73.6802 51.0949C73.3131 51.0223 72.9758 50.8424 72.7112 50.578C72.4465 50.3136 72.2665 49.9766 72.1938 49.6098C72.1212 49.243 72.1592 48.8629 72.3031 48.5177C72.447 48.1726 72.6903 47.8779 73.0021 47.6711C73.3139 47.4642 73.6801 47.3546 74.0544 47.3561C74.5534 47.3561 75.032 47.5541 75.3849 47.9067C75.7378 48.2593 75.936 48.7374 75.936 49.236Z" fill="#EBEBEB"/>
<path d="M83.6267 49.236C83.6267 49.6078 83.5163 49.9713 83.3096 50.2804C83.1028 50.5896 82.8089 50.8305 82.4651 50.9728C82.1213 51.1151 81.743 51.1523 81.378 51.0798C81.013 51.0073 80.6777 50.8282 80.4146 50.5653C80.1514 50.3024 79.9722 49.9674 79.8996 49.6028C79.827 49.2381 79.8643 48.8601 80.0067 48.5166C80.1491 48.1731 80.3903 47.8795 80.6997 47.6729C81.0091 47.4663 81.3729 47.3561 81.7451 47.3561C82.2441 47.3561 82.7227 47.5541 83.0756 47.9067C83.4284 48.2593 83.6267 48.7374 83.6267 49.236Z" fill="#FFC727"/>
<path d="M155.038 52.5258H61.2267V53.2718H155.038V52.5258Z" fill="#EBEBEB"/>
<path d="M55.1339 113.146C55.4627 112.943 55.8414 112.836 56.2277 112.836C56.6141 112.836 56.9928 112.943 57.3216 113.146C57.5008 113.26 57.6875 113.365 57.8816 113.459C58.0683 113.564 58.2624 113.661 58.4565 113.758C58.8058 113.916 59.1044 114.167 59.3193 114.485C59.5341 114.802 59.6567 115.173 59.6736 115.555L59.7557 118.241L68.4992 117.965L68.4171 115.287C68.4058 114.9 68.5025 114.518 68.6964 114.184C68.8902 113.849 69.1736 113.575 69.5147 113.392C69.8982 113.187 70.2697 112.961 70.6272 112.713C70.9392 112.491 71.3072 112.359 71.6897 112.334C72.0722 112.309 72.4541 112.391 72.7925 112.571L75.152 113.84L79.2885 106.133L76.9067 104.888C76.569 104.706 76.2888 104.434 76.0975 104.102C75.9062 103.769 75.8115 103.391 75.824 103.008C75.8315 102.572 75.8166 102.136 75.7792 101.702C75.7425 101.319 75.8131 100.934 75.9832 100.588C76.1533 100.243 76.4162 99.9521 76.7424 99.7477L78.9824 98.3377L74.3755 90.8777L72.0832 92.2951C71.7567 92.4965 71.3805 92.6031 70.9968 92.6031C70.6131 92.6031 70.2369 92.4965 69.9104 92.2951C69.7312 92.1857 69.5445 92.0813 69.3504 91.9818C69.1637 91.8774 68.9696 91.7804 68.7755 91.6909C68.4245 91.5309 68.1249 91.2767 67.91 90.9567C67.6951 90.6366 67.5734 90.2632 67.5584 89.8781L67.4763 87.1999L58.7328 87.4685L58.8149 90.1392C58.8264 90.5239 58.7305 90.9041 58.538 91.2374C58.3454 91.5708 58.0639 91.844 57.7248 92.0266C57.344 92.2354 56.9781 92.4667 56.6123 92.7129C56.2988 92.9352 55.9296 93.0662 55.546 93.0912C55.1623 93.1163 54.7793 93.0344 54.4395 92.8546L52.08 91.5939L47.9435 99.2926L50.3029 100.561C50.6423 100.742 50.9238 101.016 51.1153 101.349C51.3067 101.683 51.4004 102.064 51.3856 102.448C51.4074 102.89 51.4522 103.331 51.52 103.769C51.555 104.151 51.4836 104.536 51.3136 104.881C51.1437 105.226 50.8818 105.517 50.5568 105.723L48.3168 107.133L52.9237 114.556L55.1339 113.146ZM57.3291 99.3523C57.9992 98.1067 59.0237 97.0875 60.2733 96.4234C61.5229 95.7592 62.9414 95.48 64.3498 95.6209C65.7581 95.7618 67.093 96.3166 68.186 97.2151C69.2789 98.1136 70.0808 99.3156 70.4904 100.669C70.8999 102.023 70.8988 103.467 70.4871 104.82C70.0755 106.173 69.2717 107.374 68.1773 108.271C67.083 109.168 65.7472 109.72 64.3387 109.859C62.9301 109.998 61.512 109.716 60.2635 109.05C58.5881 108.152 57.3381 106.626 56.7879 104.808C56.2378 102.99 56.4324 101.027 57.3291 99.3523Z" fill="#EBEBEB"/>
<path d="M487.842 193.602C488.169 193.399 488.547 193.292 488.932 193.292C489.317 193.292 489.695 193.399 490.022 193.602L490.582 193.923L491.165 194.214C491.514 194.372 491.813 194.623 492.028 194.941C492.242 195.258 492.365 195.629 492.382 196.011L492.464 198.697L501.207 198.421L501.125 195.743C501.115 195.359 501.212 194.979 501.406 194.647C501.6 194.315 501.883 194.043 502.223 193.863C502.603 193.653 502.971 193.424 503.328 193.177C503.642 192.956 504.011 192.826 504.394 192.801C504.778 192.776 505.161 192.857 505.501 193.035L507.86 194.303L511.997 186.597L509.637 185.336C509.299 185.153 509.019 184.88 508.827 184.546C508.636 184.213 508.542 183.833 508.555 183.449C508.562 183.016 508.547 182.582 508.51 182.151C508.473 181.767 508.544 181.38 508.714 181.034C508.884 180.688 509.147 180.395 509.473 180.189L511.713 178.779L507.106 171.319L504.814 172.744C504.487 172.945 504.111 173.052 503.727 173.052C503.344 173.052 502.968 172.945 502.641 172.744L502.081 172.43C501.894 172.326 501.7 172.229 501.506 172.139C501.155 171.982 500.855 171.729 500.64 171.41C500.425 171.091 500.304 170.718 500.289 170.334L500.207 167.649L491.463 167.917L491.546 170.595C491.557 170.979 491.462 171.358 491.269 171.691C491.076 172.023 490.794 172.295 490.455 172.475C490.071 172.683 489.699 172.915 489.343 173.169C489.029 173.39 488.659 173.52 488.276 173.544C487.892 173.567 487.509 173.484 487.17 173.303L484.811 172.043L480.711 179.786L483.071 181.047C483.408 181.231 483.688 181.505 483.879 181.838C484.07 182.171 484.165 182.55 484.154 182.934C484.146 183.37 484.161 183.806 484.198 184.24C484.233 184.623 484.161 185.009 483.99 185.354C483.819 185.699 483.555 185.99 483.228 186.194L480.988 187.604L485.595 195.064L487.842 193.602ZM490.037 179.786C490.708 178.541 491.733 177.522 492.983 176.858C494.233 176.195 495.652 175.916 497.061 176.058C498.469 176.2 499.804 176.756 500.896 177.655C501.989 178.554 502.79 179.757 503.198 181.111C503.607 182.465 503.605 183.91 503.192 185.262C502.779 186.615 501.975 187.815 500.879 188.711C499.784 189.607 498.448 190.159 497.039 190.296C495.63 190.434 494.212 190.151 492.964 189.484C492.134 189.04 491.399 188.437 490.803 187.709C490.206 186.981 489.759 186.142 489.487 185.242C489.215 184.341 489.124 183.395 489.218 182.459C489.313 181.523 489.591 180.615 490.037 179.786Z" fill="#EBEBEB"/>
<path d="M72.7701 136.003C73.0071 136.14 73.202 136.338 73.3337 136.578C73.4653 136.817 73.5287 137.088 73.5168 137.361C73.5168 137.51 73.5168 137.659 73.5168 137.809C73.5168 137.958 73.5168 138.114 73.5168 138.264C73.5319 138.535 73.4698 138.805 73.3377 139.043C73.2055 139.28 73.0088 139.476 72.7701 139.606L71.1349 140.546L74.2037 145.85L75.8315 144.91C76.0621 144.783 76.3232 144.721 76.5865 144.732C76.8498 144.742 77.1051 144.825 77.3248 144.97C77.5787 145.134 77.8475 145.283 78.1163 145.425C78.3574 145.544 78.5605 145.728 78.7029 145.956C78.8453 146.184 78.9214 146.447 78.9227 146.716V148.588H85.12V146.716C85.1212 146.447 85.1973 146.184 85.3398 145.956C85.4822 145.728 85.6853 145.544 85.9264 145.425C86.1952 145.283 86.4565 145.134 86.6731 144.97C86.893 144.826 87.1483 144.744 87.4114 144.733C87.6746 144.723 87.9356 144.784 88.1664 144.91L89.7941 145.85L92.8555 140.546L91.2203 139.606C90.981 139.475 90.784 139.278 90.6519 139.039C90.5197 138.8 90.4579 138.529 90.4736 138.256C90.4736 138.107 90.4736 137.958 90.4736 137.809C90.4736 137.659 90.4736 137.51 90.4736 137.361C90.4579 137.088 90.5197 136.817 90.6519 136.578C90.784 136.339 90.981 136.143 91.2203 136.011L92.848 135.071L89.7867 129.767L88.1664 130.707C87.9303 130.837 87.6634 130.901 87.3939 130.892C87.1244 130.882 86.8624 130.8 86.6357 130.654C86.3805 130.486 86.1163 130.332 85.8443 130.192C85.6026 130.073 85.399 129.89 85.2565 129.662C85.114 129.434 85.0383 129.17 85.0379 128.901V127.029H78.9077V128.901C78.9074 129.17 78.8316 129.434 78.6891 129.662C78.5466 129.89 78.343 130.073 78.1013 130.192C77.8284 130.33 77.5641 130.484 77.3099 130.654C77.0875 130.793 76.8324 130.871 76.5702 130.881C76.3081 130.89 76.0481 130.83 75.8165 130.707L74.2112 129.804L71.1424 135.108L72.7701 136.003ZM82.0213 132.788C83.0155 132.787 83.9878 133.08 84.8151 133.63C85.6425 134.181 86.2877 134.965 86.6692 135.882C87.0507 136.799 87.1513 137.809 86.9582 138.783C86.7652 139.758 86.2872 140.653 85.5847 141.356C84.8822 142.059 83.9869 142.538 83.0119 142.732C82.0369 142.926 81.0262 142.827 80.1075 142.448C79.1889 142.068 78.4036 141.424 77.8511 140.599C77.2986 139.773 77.0037 138.802 77.0037 137.809C77.0057 136.479 77.5347 135.204 78.4751 134.263C79.4154 133.322 80.6905 132.792 82.0213 132.788Z" fill="#EBEBEB"/>
<path d="M68.4395 212.61C68.4395 211.767 68.5515 209.522 68.5515 208.567C68.5515 204.471 67.0581 202.599 63.2725 202.509C61.4805 202.397 60.4128 201.33 60.4128 199.816C60.4128 198.302 61.4805 197.235 63.2725 197.123C67.0955 196.951 68.5515 195.154 68.5515 191.006C68.5515 190.051 68.4395 187.805 68.4395 186.963C68.4395 181.524 70.7467 178.011 79.4528 176.138C80.0449 176 80.6672 176.089 81.1966 176.388C81.726 176.687 82.1239 177.173 82.3116 177.751C82.4994 178.328 82.4632 178.955 82.2104 179.508C81.9575 180.06 81.5063 180.497 80.9461 180.733C75.4955 182.419 74.7115 184.158 74.7115 187.977C74.7115 189.096 74.8235 190.961 74.8235 192.125C74.8235 196.504 72.688 198.637 68.9771 199.816C72.7104 201.047 74.8235 203.128 74.8235 207.5C74.8235 208.679 74.7115 210.529 74.7115 211.655C74.7115 215.467 75.4581 217.213 80.9461 218.891C81.5185 219.119 81.9828 219.556 82.2447 220.113C82.5067 220.67 82.5467 221.306 82.3568 221.891C82.1668 222.477 81.761 222.968 81.2217 223.266C80.6825 223.564 80.0501 223.645 79.4528 223.494C70.7467 221.562 68.4395 218.086 68.4395 212.61Z" fill="#EBEBEB"/>
<path d="M101.353 186.94C101.353 187.783 101.241 190.029 101.241 190.983C101.241 195.131 102.734 196.951 106.579 197.101C108.319 197.213 109.387 198.279 109.387 199.794C109.387 201.308 108.319 202.375 106.579 202.487C102.756 202.599 101.241 204.449 101.241 208.544C101.241 209.499 101.353 211.745 101.353 212.588C101.353 218.086 99.0528 221.54 90.3467 223.472C89.7357 223.67 89.0712 223.617 88.4992 223.325C87.9272 223.033 87.4946 222.527 87.2965 221.916C87.0985 221.306 87.1513 220.642 87.4432 220.07C87.7352 219.499 88.2424 219.067 88.8533 218.869C94.2443 217.19 95.0357 215.445 95.0357 211.633C95.0357 210.506 94.9237 208.649 94.9237 207.478C94.9237 203.106 97.0517 200.972 100.763 199.794C97.0293 198.555 94.9237 196.481 94.9237 192.102C94.9237 190.924 95.0357 189.074 95.0357 187.955C95.0357 184.135 94.2443 182.397 88.8533 180.711C88.3674 180.559 87.9449 180.252 87.6508 179.837C87.3567 179.422 87.2073 178.922 87.2256 178.413C87.2165 178.036 87.2981 177.663 87.4634 177.324C87.6288 176.985 87.8732 176.69 88.176 176.465C88.4789 176.24 88.8313 176.091 89.2038 176.03C89.5763 175.969 89.958 175.999 90.3168 176.116C99.0528 178.018 101.353 181.502 101.353 186.94Z" fill="#EBEBEB"/>
<path d="M463.822 97.92C464.26 98.3328 464.563 98.8685 464.691 99.4566C464.82 100.045 464.767 100.658 464.54 101.215C464.313 101.773 463.922 102.249 463.42 102.581C462.917 102.913 462.326 103.085 461.724 103.075C460.894 103.091 460.09 102.783 459.484 102.217L446.044 88.595C445.894 88.5502 445.85 88.4532 445.805 88.3115C445.76 88.2722 445.71 88.2396 445.655 88.2145C445.592 88.0943 445.544 87.9664 445.514 87.834C445.476 87.8159 445.443 87.7887 445.418 87.7549C445.393 87.7211 445.377 87.6816 445.372 87.6401C445.327 87.5431 445.327 87.4014 445.275 87.3566C445.222 87.3118 445.178 87.1626 445.178 87.1179V86.7822C445.178 86.6852 445.133 86.6404 445.133 86.4912C445.133 86.342 445.178 86.3047 445.178 86.2525V85.9243C445.178 85.8273 445.275 85.7751 445.275 85.7303C445.275 85.6856 445.327 85.4916 445.372 85.3499C445.416 85.2081 445.416 85.2976 445.416 85.2529C445.416 85.2081 445.566 84.9172 445.655 84.8202C445.655 84.7945 445.666 84.7698 445.684 84.7516C445.702 84.7334 445.727 84.7232 445.752 84.7232C445.821 84.5912 445.921 84.4783 446.044 84.395L459.484 70.773C460.063 70.2203 460.833 69.9119 461.634 69.9119C462.435 69.9119 463.205 70.2203 463.785 70.773C464.074 71.0514 464.304 71.3851 464.461 71.7542C464.618 72.1234 464.698 72.5204 464.698 72.9215C464.698 73.3226 464.618 73.7196 464.461 74.0887C464.304 74.4579 464.074 74.7916 463.785 75.07L452.48 86.4912L463.822 97.92Z" fill="#EBEBEB"/>
<path d="M476.022 99.4492L487.738 71.616C487.875 71.2949 488.075 71.0042 488.325 70.7605C488.575 70.5168 488.871 70.3249 489.196 70.196C489.521 70.067 489.868 70.0035 490.217 70.0091C490.567 70.0146 490.911 70.0892 491.232 70.2284C491.543 70.363 491.825 70.5578 492.061 70.8014C492.296 71.045 492.482 71.3328 492.606 71.6482C492.73 71.9636 492.791 72.3003 492.784 72.6392C492.778 72.978 492.705 73.3123 492.568 73.6227L480.853 101.501C480.645 101.973 480.302 102.373 479.868 102.653C479.435 102.933 478.928 103.079 478.412 103.075C478.083 103.081 477.758 103.017 477.456 102.888C477.131 102.762 476.835 102.572 476.586 102.329C476.337 102.086 476.139 101.795 476.005 101.474C475.871 101.153 475.804 100.808 475.807 100.46C475.81 100.112 475.883 99.7682 476.022 99.4492Z" fill="#EBEBEB"/>
<path d="M515.723 88.2145C515.723 88.2264 515.718 88.2378 515.71 88.2461C515.701 88.2545 515.69 88.2593 515.678 88.2593C515.577 88.3821 515.465 88.4946 515.342 88.595L501.902 102.217C501.32 102.768 500.549 103.076 499.748 103.076C498.946 103.076 498.175 102.768 497.594 102.217C497.31 101.935 497.085 101.601 496.931 101.232C496.778 100.863 496.699 100.468 496.699 100.068C496.699 99.6691 496.778 99.2736 496.931 98.9049C497.085 98.5362 497.31 98.2014 497.594 97.92L508.928 86.4912L497.594 75.07C497.31 74.7885 497.085 74.4537 496.931 74.085C496.778 73.7163 496.699 73.3209 496.699 72.9215C496.699 72.5221 496.778 72.1267 496.931 71.758C497.085 71.3893 497.31 71.0545 497.594 70.773C498.174 70.2198 498.946 69.9112 499.748 69.9112C500.55 69.9112 501.321 70.2198 501.902 70.773L515.342 84.395C515.465 84.4929 515.577 84.6029 515.678 84.7232C515.723 84.7232 515.723 84.8202 515.723 84.8202C515.811 84.9593 515.891 85.1038 515.962 85.2529C515.962 85.2976 516.014 85.2976 516.014 85.3499C516.044 85.4967 516.092 85.6395 516.156 85.7751C516.156 85.8273 516.201 85.8273 516.201 85.9243V86.2525C516.201 86.3047 516.253 86.4465 516.253 86.4912C516.253 86.536 516.201 86.6852 516.201 86.73V87.1179C516.201 87.1626 516.156 87.1626 516.156 87.2149C516.098 87.353 516.051 87.4951 516.014 87.6401C516.014 87.6923 515.962 87.6923 515.962 87.7818C515.962 87.8713 515.82 88.028 515.723 88.2145Z" fill="#EBEBEB"/>
<path d="M44.4416 259.757C195.358 259.295 364.642 259.295 515.588 259.757C364.672 260.212 195.388 260.212 44.4416 259.757Z" fill="#263238"/>
<path d="M515.947 149.028C498.505 172.632 480.316 200.018 475.888 229.596C475.836 230.044 476.553 230.193 476.635 229.746C478.64 221.675 481.218 213.758 484.348 206.053C495.817 202.897 507.069 200.308 513.094 188.939C519.232 177.25 518.455 162.009 517.283 149.275C517.246 148.611 516.32 148.573 515.947 149.028Z" fill="#FFC727"/>
<path d="M484.587 205.844C492.427 188.275 502.507 170.64 515.267 156.197C515.349 156.1 515.484 156.235 515.409 156.332C507.039 166.619 500.677 177.824 494.502 189.223C500.274 183.367 506.606 178.122 512.079 171.908C512.183 171.789 512.355 171.968 512.251 172.087C506.822 178.6 500.886 185.672 493.815 190.491C491.914 193.972 489.995 197.479 488.059 201.01C488.537 200.741 489.022 200.51 489.515 200.264C489.597 200.226 489.671 200.353 489.589 200.398C489.052 200.667 488.514 200.957 487.954 201.189C487.036 202.852 486.132 204.516 485.184 206.172C484.915 206.538 484.4 206.217 484.587 205.844Z" fill="#263238"/>
<path d="M490.396 199.712C495.087 197.084 499.563 194.09 503.783 190.76C503.895 190.67 504.06 190.827 503.948 190.924C499.852 194.468 495.359 197.527 490.56 200.04C490.373 200.152 490.179 199.838 490.396 199.712Z" fill="#263238"/>
<path d="M473.894 225.21C473.932 225.568 474.537 225.568 474.529 225.21C474.626 215.467 474.529 205.68 474.686 195.885C477.187 190.849 482.548 188.059 486.282 184.023C488.964 181.066 491.299 177.812 493.241 174.325C497.847 166.119 500.349 156.809 501.305 147.469C502.335 137.025 498.378 102.65 493.98 103.843C491.702 104.462 484.318 121.501 482.362 127.133C479.185 136.422 476.861 145.981 475.418 155.69C471.848 178.585 472.147 202.166 473.894 225.21Z" fill="#FFC727"/>
<path d="M473.827 183.173L473.872 183.128C474.402 170.797 477.187 158.346 479.786 146.388C482.593 133.504 485.871 121.367 492.479 109.878C492.506 109.836 492.548 109.805 492.597 109.793C492.646 109.781 492.697 109.788 492.741 109.813C492.784 109.838 492.817 109.879 492.83 109.928C492.844 109.976 492.839 110.028 492.815 110.072C488.385 119.008 484.957 128.405 482.593 138.092C483.041 137.398 483.579 136.742 484.042 136.085C484.221 135.824 484.654 136.085 484.475 136.331C483.879 137.371 483.184 138.351 482.399 139.256C482.374 139.279 482.343 139.295 482.309 139.301C480.025 148.506 478.389 157.951 476.986 167.328C477.09 167.208 477.187 167.074 477.292 166.962C477.309 166.95 477.329 166.943 477.35 166.943C477.371 166.942 477.392 166.949 477.409 166.962C477.426 166.975 477.438 166.992 477.444 167.013C477.45 167.033 477.449 167.054 477.441 167.074C477.262 167.387 477.068 167.693 476.881 168.007C476.134 172.774 475.515 177.533 474.858 182.255C483.355 174.997 490.62 166.44 494.711 155.899C494.715 155.891 494.721 155.884 494.728 155.88C494.735 155.875 494.744 155.872 494.753 155.872C494.761 155.872 494.77 155.875 494.777 155.88C494.784 155.884 494.79 155.891 494.794 155.899C490.784 166.828 484.46 176.548 474.723 183.188L474.186 186.992C474.148 187.253 473.73 187.186 473.73 186.933C473.73 185.806 473.79 184.695 473.835 183.553C473.807 183.53 473.785 183.501 473.769 183.469C473.754 183.436 473.746 183.401 473.745 183.365C473.744 183.329 473.751 183.293 473.765 183.26C473.78 183.227 473.801 183.197 473.827 183.173Z" fill="#263238"/>
<path d="M477.867 165.299C484.363 155.601 490.426 146.209 495.182 135.503C495.234 135.384 495.443 135.503 495.391 135.593C491.389 146.231 485.781 157.011 478.218 165.552C478.001 165.724 477.695 165.5 477.867 165.299Z" fill="#263238"/>
<path d="M486.461 133.109C489.149 128.357 491.986 123.724 494.525 118.875C494.592 118.741 494.779 118.875 494.719 118.987C492.646 124.052 490.017 128.871 486.879 133.355C486.7 133.601 486.304 133.385 486.461 133.109Z" fill="#263238"/>
<path d="M485.408 135.183C485.416 135.186 485.423 135.192 485.428 135.199C485.433 135.207 485.435 135.215 485.435 135.224C485.435 135.233 485.433 135.241 485.428 135.248C485.423 135.256 485.416 135.261 485.408 135.265C485.4 135.261 485.393 135.256 485.388 135.248C485.384 135.241 485.381 135.233 485.381 135.224C485.381 135.215 485.384 135.207 485.388 135.199C485.393 135.192 485.4 135.186 485.408 135.183Z" fill="#263238"/>
<path d="M467.294 197.026C467.162 203.486 466.399 209.917 465.017 216.228C465.114 216.922 465.211 217.616 465.315 218.332C467.305 211.359 468.458 204.174 468.75 196.929C468.809 196.828 468.84 196.714 468.84 196.597C468.84 196.48 468.809 196.366 468.75 196.265C469.05 186.546 468.352 176.822 466.667 167.246C463.643 149.342 457.042 132.146 444.543 118.718C444.439 118.631 444.317 118.568 444.185 118.534C444.054 118.5 443.916 118.497 443.783 118.524C443.65 118.552 443.525 118.609 443.417 118.692C443.31 118.774 443.222 118.88 443.162 119.002C438.114 131.818 439.876 147.119 444.177 159.905C446.517 166.818 449.855 173.352 454.085 179.301C458.341 185.351 463.807 190.446 467.294 197.026Z" fill="#FFC727"/>
<path d="M445.984 124.716C457.834 143.933 466.077 166.709 467.085 189.409C467.085 189.812 466.428 189.917 466.338 189.506C466.062 187.462 465.748 185.441 465.42 183.434C460.522 178.742 455.489 173.788 451.98 167.932C451.913 167.828 452.062 167.708 452.144 167.798C456.407 172.669 460.357 177.66 465.203 181.972C464.362 176.949 463.349 172.008 462.164 167.149C461.843 166.783 461.537 166.403 461.223 166.045C461.022 165.806 461.358 165.455 461.574 165.694L461.858 166.007C460.189 159.34 458.122 152.779 455.668 146.358C452.682 142.762 449.277 139.644 447.082 135.324C447.07 135.304 447.067 135.279 447.073 135.256C447.079 135.233 447.094 135.213 447.115 135.201C447.136 135.189 447.161 135.186 447.184 135.193C447.207 135.199 447.227 135.214 447.238 135.235C448.942 137.747 450.772 140.172 452.719 142.501C453.518 143.418 454.391 144.276 455.22 145.164C452.485 138.202 449.241 131.449 445.514 124.962C445.481 124.9 445.474 124.827 445.495 124.76C445.516 124.693 445.563 124.637 445.626 124.604C445.688 124.572 445.761 124.565 445.828 124.586C445.895 124.607 445.951 124.654 445.984 124.716Z" fill="#263238"/>
<path d="M448.381 148.454C452.211 153.609 456.594 158.518 460.133 163.844C460.238 163.993 460.014 164.15 459.887 164.03C455.31 159.748 451.442 153.892 448.119 148.611C448 148.402 448.269 148.268 448.381 148.454Z" fill="#263238"/>
<path d="M460.693 165L460.858 165.164C460.97 165.276 460.79 165.448 460.678 165.336L460.514 165.172C460.38 165.06 460.559 164.866 460.693 165Z" fill="#263238"/>
<path d="M427.422 161.651C428.37 171.535 433.574 183.344 439.921 190.961C442.714 194.272 446.168 196.966 450.061 198.869C454.451 201.04 459.021 203.539 463.598 205.322C465.754 210.811 467.358 216.501 468.384 222.308C468.533 221.816 468.675 221.301 468.825 220.816C465.905 195.795 449.702 174.4 428.967 160.666C428.805 160.561 428.616 160.505 428.423 160.505C428.23 160.504 428.041 160.559 427.878 160.663C427.715 160.766 427.586 160.915 427.505 161.09C427.424 161.265 427.395 161.46 427.422 161.651Z" fill="#FFC727"/>
<path d="M434.56 169.051C434.411 168.917 434.612 168.656 434.769 168.775C445.76 176.906 455.676 188.768 461.194 201.308C461.343 201.651 460.873 201.95 460.678 201.606C459.715 199.921 458.73 198.279 457.692 196.668C452.958 195.78 448.478 192.453 444.998 189.29C444.901 189.208 445.043 189.066 445.133 189.148C446.94 190.795 448.947 192.208 451.106 193.356C453.04 194.333 455.116 194.952 457.124 195.735C455.37 192.953 453.54 190.282 451.636 187.694C446.537 185.963 441.691 182.837 437.45 179.711C437.315 179.614 437.45 179.391 437.584 179.48C441.861 182.066 446.272 184.421 450.8 186.537C447.913 182.728 444.796 179.098 441.467 175.668C439.861 174.818 438.226 173.967 436.666 173.057C436.539 172.982 436.666 172.766 436.77 172.818C438.066 173.269 439.302 173.876 440.451 174.624C438.577 172.736 436.643 170.871 434.56 169.051Z" fill="#263238"/>
<path d="M435.023 177.69C435.304 177.857 435.572 178.046 435.822 178.257C435.897 178.324 435.822 178.421 435.717 178.391C435.431 178.253 435.154 178.096 434.889 177.921C434.747 177.824 434.881 177.6 435.023 177.69Z" fill="#263238"/>
<path d="M450.285 213.431H495.264L490.836 259.75H454.713L450.285 213.431Z" fill="#455A64"/>
<path d="M451.136 222.323L450.285 213.431H495.264L494.719 219.167L451.136 222.323Z" fill="#37474F"/>
<path d="M498.31 205.456H447.246V216.735H498.31V205.456Z" fill="#455A64"/>
<path d="M453.047 31.2798H106.96V262.577H453.047V31.2798Z" fill="#DBDBDB"/>
<path d="M450.531 34.0997H109.476V259.757H450.531V34.0997Z" fill="#263238"/>
<path d="M498.116 316.304H61.8837V332.328H498.116V316.304Z" fill="#C7C7C7"/>
<path d="M61.8837 316.304L106.96 262.577H453.04L498.116 316.304H61.8837Z" fill="#DBDBDB"/>
<path d="M453.025 286.934H108.282L125.955 262.577H435.351L453.025 286.934Z" fill="#263238"/>
<path d="M446.85 278.422H114.457L115.173 277.43H446.133L446.85 278.422Z" fill="#37474F"/>
<path d="M440.391 269.53H120.915L121.632 268.53H439.675L440.391 269.53Z" fill="#37474F"/>
<path d="M226.636 310.261L237.806 293.118H322.724L334.678 310.261H226.636Z" fill="#263238"/>
<path d="M311.995 322.742H249.312L247.759 316.304H313.555L311.995 322.742Z" fill="#DBDBDB"/>
<path d="M431.514 51.2428H128.494V242.935H431.514V51.2428Z" fill="#37474F"/>
<path d="M431.514 51.2428H128.494V58.6207H431.514V51.2428Z" fill="#FFC727"/>
<path d="M135.438 54.928C135.438 55.2039 135.356 55.4736 135.203 55.703C135.049 55.9324 134.831 56.1112 134.576 56.2168C134.321 56.3224 134.04 56.35 133.769 56.2962C133.498 56.2424 133.25 56.1095 133.054 55.9144C132.859 55.7193 132.726 55.4707 132.672 55.2001C132.618 54.9295 132.646 54.649 132.752 54.3941C132.857 54.1392 133.036 53.9214 133.266 53.7681C133.495 53.6148 133.765 53.533 134.042 53.533C134.225 53.532 134.407 53.5674 134.577 53.6371C134.747 53.7069 134.901 53.8096 135.031 53.9394C135.161 54.0691 135.264 54.2233 135.334 54.393C135.403 54.5627 135.439 54.7445 135.438 54.928Z" fill="#C7C7C7"/>
<path d="M141.12 54.928C141.12 55.2039 141.038 55.4736 140.885 55.703C140.731 55.9324 140.513 56.1112 140.258 56.2168C140.003 56.3224 139.722 56.35 139.451 56.2962C139.18 56.2424 138.932 56.1095 138.736 55.9144C138.541 55.7193 138.408 55.4707 138.354 55.2001C138.3 54.9295 138.328 54.649 138.434 54.3941C138.539 54.1392 138.718 53.9214 138.948 53.7681C139.178 53.6148 139.448 53.533 139.724 53.533C139.907 53.532 140.089 53.5674 140.259 53.6371C140.429 53.7069 140.583 53.8096 140.713 53.9394C140.843 54.0691 140.946 54.2233 141.016 54.393C141.086 54.5627 141.121 54.7445 141.12 54.928Z" fill="white"/>
<path d="M146.847 54.928C146.847 55.2039 146.765 55.4736 146.612 55.703C146.458 55.9324 146.24 56.1112 145.985 56.2168C145.73 56.3224 145.449 56.35 145.178 56.2962C144.907 56.2424 144.659 56.1095 144.463 55.9144C144.268 55.7193 144.135 55.4707 144.081 55.2001C144.027 54.9295 144.055 54.649 144.161 54.3941C144.266 54.1392 144.445 53.9214 144.675 53.7681C144.905 53.6148 145.175 53.533 145.451 53.533C145.634 53.532 145.816 53.5674 145.986 53.6371C146.156 53.7069 146.31 53.8096 146.44 53.9394C146.57 54.0691 146.673 54.2233 146.743 54.393C146.812 54.5627 146.848 54.7445 146.847 54.928Z" fill="#455A64"/>
<path d="M156.382 91.3925H147.855V93.9811H156.382V91.3925Z" fill="#EBEBEB"/>
<path d="M355.421 91.3925H166.439V93.9811H355.421V91.3925Z" fill="#EBEBEB"/>
<path d="M376.858 91.3925H360.662V93.9811H376.858V91.3925Z" fill="#FFC727"/>
<path d="M156.382 103.634H147.855V106.223H156.382V103.634Z" fill="#EBEBEB"/>
<path d="M238.926 103.634H174.75V106.223H238.926V103.634Z" fill="#A6A6A6"/>
<path d="M382.726 152.617H358.452V155.205H382.726V152.617Z" fill="#A6A6A6"/>
<path d="M227.741 140.367H166.439V142.956H227.741V140.367Z" fill="#A6A6A6"/>
<path d="M217.758 115.884H174.75V118.472H217.758V115.884Z" fill="#FFC727"/>
<path d="M382.39 115.884H222.529V118.472H382.39V115.884Z" fill="#A6A6A6"/>
<path d="M352.905 152.617H166.439V155.205H352.905V152.617Z" fill="#FFC727"/>
<path d="M375.051 103.634H242.958V106.223H375.051V103.634Z" fill="#EBEBEB"/>
<path d="M156.382 115.884H147.855V118.472H156.382V115.884Z" fill="#EBEBEB"/>
<path d="M156.382 128.126H147.855V130.714H156.382V128.126Z" fill="#A6A6A6"/>
<path d="M216.825 128.126H166.439V130.714H216.825V128.126Z" fill="#EBEBEB"/>
<path d="M225.135 164.859H174.75V167.447H225.135V164.859Z" fill="#EBEBEB"/>
<path d="M355.481 177.108H220.311V179.697H355.481V177.108Z" fill="#EBEBEB"/>
<path d="M212.621 177.108H174.75V179.697H212.621V177.108Z" fill="#A6A6A6"/>
<path d="M376.85 140.367H231.205V142.956H376.85V140.367Z" fill="#EBEBEB"/>
<path d="M367.532 128.126H221.947V130.714H367.532V128.126Z" fill="#FFC727"/>
<path d="M156.382 140.367H147.855V142.956H156.382V140.367Z" fill="#EBEBEB"/>
<path d="M156.382 152.617H147.855V155.205H156.382V152.617Z" fill="#EBEBEB"/>
<path d="M156.382 164.859H147.855V167.447H156.382V164.859Z" fill="#A6A6A6"/>
<path d="M156.382 177.108H147.855V179.697H156.382V177.108Z" fill="#EBEBEB"/>
<path d="M156.382 188.223H147.855V190.812H156.382V188.223Z" fill="#EBEBEB"/>
<path d="M266.403 188.223H166.439V190.812H266.403V188.223Z" fill="#EBEBEB"/>
<path d="M153.141 79.3968L154.978 75.0252C154.999 74.9749 155.03 74.9293 155.069 74.8911C155.108 74.8529 155.154 74.8228 155.205 74.8027C155.256 74.7825 155.31 74.7727 155.365 74.7738C155.419 74.7748 155.473 74.7868 155.523 74.8089C155.572 74.8293 155.617 74.8592 155.655 74.8969C155.692 74.9346 155.722 74.9794 155.742 75.0286C155.762 75.0779 155.772 75.1306 155.772 75.1838C155.771 75.237 155.761 75.2896 155.74 75.3385L153.895 79.7176C153.863 79.7914 153.81 79.8542 153.742 79.8979C153.674 79.9417 153.595 79.9646 153.515 79.9637C153.465 79.9742 153.415 79.9742 153.365 79.9637C153.311 79.9446 153.261 79.914 153.219 79.8739C153.177 79.8338 153.145 79.7852 153.124 79.7315C153.102 79.6777 153.093 79.6199 153.096 79.5622C153.099 79.5044 153.115 79.448 153.141 79.3968Z" fill="#FFC727"/>
<path d="M159.369 77.6288L159.316 77.6884L157.196 79.822C157.105 79.9086 156.985 79.957 156.86 79.957C156.735 79.957 156.614 79.9086 156.524 79.822C156.479 79.7782 156.444 79.726 156.419 79.6684C156.395 79.6107 156.383 79.5488 156.383 79.4863C156.383 79.4238 156.395 79.3619 156.419 79.3042C156.444 79.2466 156.479 79.1944 156.524 79.1506L158.293 77.3602L156.516 75.5698C156.472 75.5261 156.436 75.4738 156.412 75.4162C156.388 75.3585 156.375 75.2966 156.375 75.2341C156.375 75.1716 156.388 75.1097 156.412 75.052C156.436 74.9944 156.472 74.9422 156.516 74.8984C156.607 74.8118 156.727 74.7634 156.852 74.7634C156.978 74.7634 157.098 74.8118 157.188 74.8984L159.301 77.032L159.354 77.0842C159.367 77.1058 159.38 77.1283 159.391 77.1513C159.389 77.1737 159.389 77.1961 159.391 77.2185V77.2707V77.3304C159.39 77.3527 159.39 77.3751 159.391 77.3975L159.369 77.6288Z" fill="#FFC727"/>
<path d="M273.123 182.531H271.958V196.504H273.123V182.531Z" fill="#EBEBEB"/>
<path d="M173.817 343.794C173.817 343.794 203.213 330.739 208.051 328.531C217.758 324.107 235.14 310.478 242.577 305.681C246.923 302.876 243.451 293.394 230.235 295.006C217.019 296.617 192.379 309.478 190.258 306.71C188.138 303.943 222.365 283.398 227.166 281.742C231.967 280.086 247.819 286.531 257.398 283.234C266.978 279.937 261.983 271.432 254.352 268.232C244.242 263.987 224.986 261.279 217.9 261.279C210.814 261.279 189.011 277.124 189.011 277.124C189.011 277.124 218.415 265.569 222.051 263.428C225.687 261.286 243.189 260.951 254.255 256.99C265.321 253.028 258.093 241.704 239.59 241.868C228.712 241.858 217.854 242.802 207.14 244.688C201.914 245.479 170.345 266.367 170.345 266.367C170.345 266.367 176.46 265.046 178.939 264.218C181.418 263.39 206.043 247.888 209.462 246.083C222.372 239.257 231.504 230.126 227.382 224.367C224.396 220.182 207.163 225.531 198.77 230.335C187.615 236.713 155.994 260.1 155.994 260.1L195.627 233.371C195.627 233.371 192.423 230.715 181.776 233.058C175.482 234.445 149.669 249.858 145.57 252.984C133.175 262.42 99.8443 303.033 99.8443 303.033L127.105 337.983L173.817 343.794Z" fill="#D3766A"/>
<path d="M157.845 259.168C167.194 251.365 174.817 242.569 194.716 233.058C194.783 233.058 194.716 232.856 194.641 232.871C180.454 236.497 167.067 248.023 157.539 258.75C157.226 259.145 157.472 259.474 157.845 259.168Z" fill="#263238"/>
<path d="M171.786 266.18C180.066 261.242 189.646 254.61 199.539 249.768C204.393 247.389 206.483 246.904 213.435 243.867C213.502 243.867 213.435 243.688 213.375 243.703C207.081 245.3 206.043 245.113 199.285 247.665C190.49 250.984 176.057 261.667 171.502 265.859C171.143 266.188 171.345 266.434 171.786 266.18Z" fill="#263238"/>
<path d="M187.085 276.43C196.045 272.82 206.924 266.337 216.167 263.353C218.482 262.607 222.021 262.129 227.315 262.129C227.599 262.129 227.95 261.816 227.278 261.697C222.798 260.876 218.355 260.951 215.593 261.697C206.528 264.226 191.998 272.618 186.861 276.065C186.458 276.348 186.614 276.624 187.085 276.43Z" fill="#263238"/>
<path d="M173.817 343.802L155.546 372.94H20.6976L99.8144 303.033L167.388 295.58L173.817 343.802Z" fill="#D3766A"/>
<path d="M155.546 372.94L160.377 365.227L59.4795 338.669L20.6976 372.94H155.546Z" fill="#FFC727"/>
<path opacity="0.1" d="M155.546 372.94L160.377 365.227L59.4795 338.669L20.6976 372.94H155.546Z" fill="black"/>
<path opacity="0.1" d="M21.5712 372.164L25.3643 368.807V372.933H21.5712V372.164Z" fill="black"/>
<path opacity="0.1" d="M154.567 363.697V372.933H150.774V362.698L154.567 363.697Z" fill="black"/>
<path opacity="0.1" d="M128.725 356.894L141.075 360.146H128.725V372.933H124.932V360.146H102.883V372.933H99.0901V360.146H77.0411V372.933H73.248V360.146H51.2064V372.933H47.4133V360.146H35.168L39.4613 356.357H47.4133V349.329L51.2064 345.98V356.357H73.248V342.295L77.0411 343.294V356.357H99.0901V349.098L102.883 350.09V356.357H124.932V355.894L126.679 356.357H128.725V356.894Z" fill="black"/>
<path d="M41.7461 350.672L160.377 369.524L171.323 352.657L65.5648 329.232L41.7461 350.672Z" fill="#FFC727"/>
<path d="M374.409 328.412C374.409 328.412 347.618 315.133 342.593 313.402C332.528 309.926 317.087 295.394 309.217 291.335C304.625 288.963 307.171 279.191 320.484 279.526C333.797 279.862 348.566 290.865 349.223 289.761C351.023 286.777 320.26 272.954 315.332 271.768C310.404 270.582 295.008 274.618 285.152 272.253C275.296 269.888 279.455 260.951 286.742 257.027C296.397 251.805 315.534 251.193 322.582 250.507C329.631 249.82 352.86 263.51 352.86 263.51C352.86 263.51 322.485 254.834 318.655 253.066C314.825 251.298 297.375 252.633 285.981 249.753C274.587 246.874 280.694 234.908 299.122 233.297C309.952 232.251 320.853 232.156 331.699 233.013C337.008 233.297 370.406 251.059 370.406 251.059C370.406 251.059 364.194 250.313 361.648 249.746C359.102 249.179 333.095 236.094 329.541 234.624C316.019 229.022 306.059 220.816 309.628 214.706C312.226 210.23 329.862 213.923 338.673 217.892C350.396 223.173 384.115 243.412 384.115 243.412L339.203 219.615C339.203 219.615 341.271 215.355 347.685 215.974C370.601 218.212 389.431 232.58 393.814 235.303C407.06 243.509 444.147 280.735 444.147 280.735L420.956 316.304L374.409 328.412Z" fill="#D3766A"/>
<path d="M384.533 240.503C374.162 234.356 360.864 226.187 340.166 218.481C340.099 218.481 340.122 218.332 340.166 218.347C354.301 221.487 373.602 230.566 384.713 240.227C385.108 240.518 384.959 240.742 384.533 240.503Z" fill="#263238"/>
<path d="M368.958 250.954C360.244 246.844 350.067 241.159 339.756 237.288C334.693 235.385 332.573 235.102 325.36 232.745C325.285 232.745 325.323 232.565 325.405 232.58C331.826 233.565 332.834 233.274 339.808 235.169C348.88 237.631 364.276 246.874 369.212 250.611C369.6 250.902 369.421 251.171 368.958 250.954Z" fill="#263238"/>
<path d="M354.711 262.637C345.468 259.891 333.999 254.483 324.509 252.409C322.134 251.887 312.749 251.521 307.477 252.029C307.194 252.029 306.82 251.782 307.477 251.596C311.883 250.343 322.112 250.208 324.934 250.708C334.193 252.357 349.47 259.317 354.913 262.256C355.339 262.488 355.204 262.778 354.711 262.637Z" fill="#263238"/>
<path d="M539.302 373.06L444.147 280.735L384.302 283.346L374.409 328.412L401.46 373.06H539.302Z" fill="#D3766A"/>
<path d="M401.46 373.06L385.317 346.42L468.406 304.271L539.302 373.06H401.46Z" fill="#FFC727"/>
<path opacity="0.1" d="M401.46 373.06L385.317 346.42L468.406 304.271L539.302 373.06H401.46Z" fill="black"/>
<path opacity="0.1" d="M472.774 308.508H460.081L467.548 304.719H468.907L472.013 307.703L472.774 308.508ZM495.473 330.538H416.498V330.605L409.158 334.335H499.378L497.81 332.843L495.473 330.538ZM522.084 356.357H391.335L393.635 360.146H525.989L523.652 357.908L522.084 356.357ZM522.084 356.357L519.844 354.201V373.067H523.637V357.879L522.084 356.357ZM495.473 330.538L493.98 329.12V373.067H497.773V332.783L495.473 330.538ZM468.907 304.719L468.444 304.271L468.16 304.368V373.045H471.961V307.732L468.907 304.719ZM442.378 317.49V373.067H446.171V315.558L442.378 317.49ZM416.64 330.538H416.513V373.06H420.306V328.673L416.64 330.538ZM390.656 343.712V355.23L391.335 356.357L393.635 360.146L394.449 361.497V341.787L390.656 343.712Z" fill="black"/>
<path d="M378.933 344.055L393.337 365.227L494.144 324.316L466.831 299.899L378.933 344.055Z" fill="#FFC727"/>
</g>
<defs>
<clipPath id="clip0_1_6">
<rect width="560" height="373" fill="white"/>
</clipPath>
</defs>
</svg>
