<svg width="100" height="36" viewBox="0 0 100 36" fill="none" xmlns="http://www.w3.org/2000/svg">
<path d="M11.856 22.592H4.872L3.672 26H0.816L6.792 9.296H9.96L15.936 26H13.056L11.856 22.592ZM11.088 20.36L8.376 12.608L5.64 20.36H11.088ZM25.2064 12.56C26.2464 12.56 27.1744 12.776 27.9904 13.208C28.8224 13.64 29.4704 14.28 29.9344 15.128C30.3984 15.976 30.6304 17 30.6304 18.2V26H27.9184V18.608C27.9184 17.424 27.6224 16.52 27.0304 15.896C26.4384 15.256 25.6304 14.936 24.6064 14.936C23.5824 14.936 22.7664 15.256 22.1584 15.896C21.5664 16.52 21.2704 17.424 21.2704 18.608V26H18.5344V12.776H21.2704V14.288C21.7184 13.744 22.2864 13.32 22.9744 13.016C23.6784 12.712 24.4224 12.56 25.2064 12.56ZM37.3123 15.008V22.328C37.3123 22.824 37.4243 23.184 37.6483 23.408C37.8883 23.616 38.2883 23.72 38.8483 23.72H40.5283V26H38.3683C37.1363 26 36.1923 25.712 35.5363 25.136C34.8803 24.56 34.5523 23.624 34.5523 22.328V15.008H32.9923V12.776H34.5523V9.488H37.3123V12.776H40.5283V15.008H37.3123ZM48.786 26.216C47.538 26.216 46.41 25.936 45.402 25.376C44.394 24.8 43.602 24 43.026 22.976C42.45 21.936 42.162 20.736 42.162 19.376C42.162 18.032 42.458 16.84 43.05 15.8C43.642 14.76 44.45 13.96 45.474 13.4C46.498 12.84 47.642 12.56 48.906 12.56C50.17 12.56 51.314 12.84 52.338 13.4C53.362 13.96 54.17 14.76 54.762 15.8C55.354 16.84 55.65 18.032 55.65 19.376C55.65 20.72 55.346 21.912 54.738 22.952C54.13 23.992 53.298 24.8 52.242 25.376C51.202 25.936 50.05 26.216 48.786 26.216ZM48.786 23.84C49.49 23.84 50.146 23.672 50.754 23.336C51.378 23 51.882 22.496 52.266 21.824C52.65 21.152 52.842 20.336 52.842 19.376C52.842 18.416 52.658 17.608 52.29 16.952C51.922 16.28 51.434 15.776 50.826 15.44C50.218 15.104 49.562 14.936 48.858 14.936C48.154 14.936 47.498 15.104 46.89 15.44C46.298 15.776 45.826 16.28 45.474 16.952C45.122 17.608 44.946 18.416 44.946 19.376C44.946 20.8 45.306 21.904 46.026 22.688C46.762 23.456 47.682 23.84 48.786 23.84ZM65.0267 12.56C66.0667 12.56 66.9947 12.776 67.8107 13.208C68.6427 13.64 69.2907 14.28 69.7547 15.128C70.2187 15.976 70.4507 17 70.4507 18.2V26H67.7387V18.608C67.7387 17.424 67.4427 16.52 66.8507 15.896C66.2587 15.256 65.4507 14.936 64.4267 14.936C63.4027 14.936 62.5867 15.256 61.9787 15.896C61.3867 16.52 61.0907 17.424 61.0907 18.608V26H58.3547V12.776H61.0907V14.288C61.5387 13.744 62.1067 13.32 62.7947 13.016C63.4987 12.712 64.2427 12.56 65.0267 12.56ZM75.3326 11.024C74.8366 11.024 74.4206 10.856 74.0846 10.52C73.7486 10.184 73.5806 9.768 73.5806 9.272C73.5806 8.776 73.7486 8.36 74.0846 8.024C74.4206 7.688 74.8366 7.52 75.3326 7.52C75.8126 7.52 76.2206 7.688 76.5566 8.024C76.8926 8.36 77.0606 8.776 77.0606 9.272C77.0606 9.768 76.8926 10.184 76.5566 10.52C76.2206 10.856 75.8126 11.024 75.3326 11.024ZM76.6766 12.776V26H73.9406V12.776H76.6766Z" fill="#333333"/>
<path d="M86.0048 26.216C84.7568 26.216 83.6288 25.936 82.6208 25.376C81.6128 24.8 80.8208 24 80.2448 22.976C79.6688 21.936 79.3808 20.736 79.3808 19.376C79.3808 18.032 79.6768 16.84 80.2688 15.8C80.8608 14.76 81.6688 13.96 82.6928 13.4C83.7168 12.84 84.8608 12.56 86.1248 12.56C87.3888 12.56 88.5328 12.84 89.5568 13.4C90.5808 13.96 91.3888 14.76 91.9808 15.8C92.5728 16.84 92.8688 18.032 92.8688 19.376C92.8688 20.72 92.5648 21.912 91.9568 22.952C91.3488 23.992 90.5168 24.8 89.4608 25.376C88.4208 25.936 87.2688 26.216 86.0048 26.216ZM86.0048 23.84C86.7088 23.84 87.3648 23.672 87.9728 23.336C88.5968 23 89.1008 22.496 89.4848 21.824C89.8688 21.152 90.0608 20.336 90.0608 19.376C90.0608 18.416 89.8768 17.608 89.5088 16.952C89.1408 16.28 88.6528 15.776 88.0448 15.44C87.4368 15.104 86.7808 14.936 86.0768 14.936C85.3728 14.936 84.7168 15.104 84.1088 15.44C83.5168 15.776 83.0448 16.28 82.6928 16.952C82.3408 17.608 82.1648 18.416 82.1648 19.376C82.1648 20.8 82.5248 21.904 83.2448 22.688C83.9808 23.456 84.9008 23.84 86.0048 23.84Z" fill="#FF852D"/>
<rect x="97" y="8" width="3" height="10" fill="#FFC727"/>
</svg>
